<?xml version="1.0" encoding="utf-8"?>
<!-- Generator: Adobe Illustrator 22.0.0, SVG Export Plug-In . SVG Version: 6.00 Build 0)  -->
<svg version="1.1" id="Layer_1" xmlns="http://www.w3.org/2000/svg" xmlns:xlink="http://www.w3.org/1999/xlink" x="0px" y="0px"
	 viewBox="0 0 1920 107.7" style="enable-background:new 0 0 1920 107.7;" xml:space="preserve">
<style type="text/css">
	.st0{fill:#5B6E7C;}
</style>
<g>
	<path class="st0" d="M96.4,45.1c-0.9,1.1-0.4,3.7,2.1,3.2l1.8-4.4L96.4,45.1z"/>
	<path class="st0" d="M113.3,53.2c2.9-2.1,6.3-5.8,4.4-9.9c-2.9,4.2-3.6,2.4-6.8,7.4c-2.5,0.5-4.4-1.4-4-3c-0.9,1.1-3.9-1-5.2,1.8
		c3.3,3.4,7.4,3.5,11.7,0.7C114.4,51.2,113.5,52.4,113.3,53.2z"/>
	<path class="st0" d="M358.2,60l-1.6-0.5C357.1,59.8,357.6,59.9,358.2,60z"/>
	<path class="st0" d="M510,62.4c-1.2,0.1-1.6,0.5-1.7,0.9C509.4,63,510.3,62.8,510,62.4z"/>
	<path class="st0" d="M535.9,67.2c-0.6-0.1-1-0.2-1.5-0.3C535,67.3,535.6,67.5,535.9,67.2z"/>
	<path class="st0" d="M358.2,60l4.1,1.4C362.6,59.9,360.2,60.3,358.2,60z"/>
	<path class="st0" d="M147.1,42.6c-0.8,0.2-1.6,0.6-2.2,1.2c0.7-0.2,1.4-0.3,2.1-0.5C147,43.1,147,42.9,147.1,42.6z"/>
	<path class="st0" d="M291.3,63.5l-1.2,0c-0.4,0.5-0.7,1.1-1,1.8L291.3,63.5z"/>
	<path class="st0" d="M240,64.2c1.2,0.2,1.6-3.5,2-5.2c-0.7,1.5-1.5,2.3-2.5,2.5C239.4,62.3,239.6,63.1,240,64.2z"/>
	<path class="st0" d="M158.6,57.7l-1.4,0.5C157.5,58,158.1,57.9,158.6,57.7z"/>
	<path class="st0" d="M328.1,64.3c0.1,0.6,0.3,1,0.5,1.3C328.5,65.2,328.4,64.8,328.1,64.3z"/>
	<path class="st0" d="M1764.2,36.5c0,0.3,0,0.4,0,0.7C1764.5,36.7,1764.6,36.5,1764.2,36.5z"/>
	<path class="st0" d="M1823.8,54.8l-0.8,0.2c-0.1,0.7-0.2,1.4-0.2,2.1L1823.8,54.8z"/>
	<path class="st0" d="M583.3,72c-0.1,0-0.1,0-0.2-0.1C581.9,72.3,582.6,72.2,583.3,72z"/>
	<path class="st0" d="M1018.7,69.2c-4.9-3.3,8-4.3,0.6-7.9C1020,62.7,1012.6,67.1,1018.7,69.2z"/>
	<path class="st0" d="M148.4,43.1c0.7,0,1.4-0.1,2.1,0C149.5,43,148.9,43,148.4,43.1z"/>
	<path class="st0" d="M1019.3,61.3C1019.3,61.3,1019.3,61.3,1019.3,61.3l-0.8-0.4C1018.9,61.1,1019,61.2,1019.3,61.3z"/>
	<path class="st0" d="M692.6,69.7c-0.2-0.7-0.7-1.2-1.1-1.6C691.5,68.5,691.8,69,692.6,69.7z"/>
	<path class="st0" d="M611.2,64.5l2,0.5C612.4,64.6,611.8,64.5,611.2,64.5z"/>
	<path class="st0" d="M734.9,64.5c1.1,0.3,1.5,0.8,3,0.3c-0.1-0.2-0.3-0.3-0.5-0.5C736.8,64.9,736.1,65.1,734.9,64.5z"/>
	<path class="st0" d="M778.9,64.5c-0.2-0.3-0.5-0.5-0.8-0.7c-0.4,0.1-0.9,0.1-1.4,0.2L778.9,64.5z"/>
	<path class="st0" d="M1630.5,38.2c1,1,1.6,2.2,2,3.3C1631.9,38.9,1638.4,38,1630.5,38.2z"/>
	<path class="st0" d="M147.1,44.7c0.3-0.9,0.6-1.4,1.3-1.6c-0.5,0-1,0.1-1.5,0.2C146.8,43.9,146.8,44.4,147.1,44.7z"/>
	<path class="st0" d="M736.7,35.2l7,0.5C741.7,35.4,739.2,35.2,736.7,35.2z"/>
	<path class="st0" d="M1314.9,38.8l1.6-0.4C1315.9,38.2,1315.4,38.3,1314.9,38.8z"/>
	<path class="st0" d="M764.4,35.2c1.2,1.3,2.6,2.1,3.9,2.6c0.3-0.3,0.6-0.5,0.8-1L764.4,35.2z"/>
	<path class="st0" d="M1632.6,41.6C1632.6,41.6,1632.6,41.6,1632.6,41.6C1632.6,41.6,1632.6,41.6,1632.6,41.6z"/>
	<path class="st0" d="M1678.6,32.8c-6.7-0.1-3.1,4.8-4.5,7.6c-7.9,1.4-3.7-3.6-6.4-6.1c-5,1.3-8.8,5.8-12.5,5.6
		c-0.3-0.8-1-1.1-0.2-2.1c-5.2,3.9-15.6,0.2-21.7,5.1c-0.5-0.4-0.7-0.8-0.8-1.2c1,2.4,1.1,4.9,0.9,6.7c-3,0.1-5.5,3.1-6.7-0.1
		c1.8,0.1,2-1.2,2.8-2.2l-3.1,1.4c-2.8-4.6,4.3-1.6,4.3-5c-6.1,1.5-13.2,5.3-17.9,4c-1-4.5,10.9-1.5,4.7-5.5l7.2,1.7
		c-5.5-7.1,4.4,0.5-0.7-7.1c-9.5-1.3-10.6,2.3-20.1,1c-2.1,2.5,0.7,3.7-1.4,6.2c-13.5,4.5-10.6-11.3-20.5-5.3
		c-2.6,3-3.6,8.7-10.6,5.7l2.4-5.1c-9.2-0.5-5.3,7.3-14.9,3.9c1.7-2,7.2-1.7,5.8-2.3c-6.3-4-4.4,2.9-9.2,2.9l-1-4.5
		c-9.8,0.7-20.6,3.9-31.5,4.8c0.6-1.3,2.5-2.7-0.1-4.1c-13.7,2.2-29.3-0.5-42.5-3.2l-5.1,3.9c-1.2,0-2.2-1.8-0.9-2.5
		c-5.2-1.5-0.3,2.5-2.7,4c-2.9,0.3-3.9-2.2-2-3.4c-9.1,3.3-25.9,7.1-35.5,2.9l1.9-1.2c-7.5-1.6-8.4,7.9-15.3,4.3l1.3-0.7
		c-16.2-1.7-34.1,1.9-46.4-4c-2.3,5.6-16-2.5-17.1,5.3c-9.2-3.9-6.6-5.3-19.6-7.8c-3.5-0.4-5.2,4.9-9.5,5.7l-0.1-4.1l-5.8,4.3
		l-3.1-4.9l-4,1c1.6,0.2,3.4,1.8,3.2,3c-6.3,1.8-15.4-2.8-15.5-4.9l-14.9,3.4c0.3-1.6,2.8-2.2,4.8-3.2c-8,4.2-1.4-4.3-8.7-0.5
		c1,0.9-0.5,2.4-0.7,3.2c-3.6-2.5-11.9-2.5-18-1.4l1.2-2.8c-11.1-0.7-23.3,1.3-35.7,1.3c4.4,1.3,3.4,6.2-0.2,6.6l-1.5-4.3
		c-2.3,2.7,3.8,1.6-1,4.9c-4.6-0.5-3.1-4.9-0.5-6.3l-5.6,1.5c-0.3-1.3,1-2,1.3-3.6c-2.3,2.7-9.7-4.3-13.1,0.3l-0.3-1.3
		c-12.4,0-18,1.4-28.1,1.7c-0.2,3.7-4.1,2.9-7.2,5.9c-7.4-1.2-15.7-4.1-24.6-3.8c-6.3,1.8-1.8,3.1-4.7,5.4c-0.5-3.4-9.4-3.1-4.8-5.5
		c-10.7,0.6-13.7,0.7-27.3,3.4c1.5,1.4,3.1,2,2.3,3.1c-2.5,0.6-5.6-1.4-5.3-3l0.7-0.4c-15.2,5.1-35.2-9.9-47.3-2.8l0.7-0.3
		l-12.6,3.7c-5.8-0.6,3.5-2.5-0.8-4.6c-13.6,5.6-21.4-0.8-32.6,2.9c-8.7-10-30.7,0.7-42.4-5.7l0.7,2.4c-3,2.3-3.7-1.3-5.9-1.9
		c0.3,1.8,3.3,2.1,1.4,3.4c-25.6,2.8-52.8-3.4-79-5.6c-9.6-0.6-5.4,12.2-17.5,6.5l3.4-4.4c-19.3,5.2-39.6-0.2-58.5,4.3
		c1.1-1,1.2-2.3,3-2.3c-4-3.2-14.8-0.2-14.9,2.4c-2.9-0.3-0.7-2.3-2.5-3.7c-4-1.9-10.1,4-12.2,0.9c-0.4-0.5,1.1-1,1.9-1.3
		c-2.6,1.5-12.2-0.4-9.7,3.3c-7.1-1.7-13.6,1.6-19.3-0.5c-3.7,4.1-12.2-2-13.3,3.8c0.5-6-12.5-4.8-17-2c1.5-1.8-3.9-1.9-2.1-4.4
		c-5.1,0.1-9.8,1.2-8.9,4.3c-9.5-7.1-19,5.8-24.3-3.4c-15.2,3.2-29.3,5.4-43,6.8c0.5-6,15.2-0.6,14.6-6.8c-13,2.5-20.5,7.6-33.4,6.1
		c-3.3-0.8,1.9-2.6,3-3.6c-13,2.5-25.1-0.5-36.7,2.7c0-0.6,1.3-1.2,2.5-1.6c-2.3,0.2-5.3-0.9-5,1.8l2.2-0.7c3.6,3.9-9,8.2-9.5,10.3
		c3.9-7.8-11.4-2-5.3-11.8c-1.5,0.5-3.4,1.8-3,3.6c-2.2-0.5-2.9-1.6-0.7-3.6c-8.2,1.5-5.3,4.4-12.7,4.3c0-1.3,1.5-1.8,2.3-3.4
		c-3.7,2.6-7.5,5.1-13.8,4c0.4-0.8-0.3-1.8,1.5-1.8c-10.7,0.4-18.3,6.8-30.1,4.3c3.5-5.7-4-1.9-4.6-6.8l-6.3,1.5l2.5,2.4
		c-5.5-0.1-10.4,3.5-15.2,1.9l4.1-2l-10.4,0.9l5.9,1.9c-5.6,2.5,0.6,6.2-6.8,4.9c1.5-0.5-5.5-0.1-8.4-3c0,0,0,0,0,0
		c-2.7,1.6-5.6,3.2-9.7,2c-1.1-1.6,0.9-5.5,0.2-6.5c-2.7,4.1-13,1.1-16.4,5.5c1.1-1,1.2-3.6,0.8-4.1l-2.3,3.4
		c-2.6-1.1-2.9-1.6-2.5-3.7c-7.7-0.6,2.5,6.3-6.7,3.6c0.7-0.3,0.4-0.8,1.9-1.3c-9.2-1.4-17.8,2.1-26.3,0.5c-2.5-5,7.4-1.2,4.5-5.4
		c-12.2,0.9-25.3,5.9-37.1,4.8l2.2,0.5c-1.6,7-8.8-3.5-14.8-0.2c1.5-0.5,1.9-3.9,1.5-3.1c-8.1-1.1-16.5,1.7-28.8,3.9l1.5-1.8
		c-4.8-1.6-12.5-0.9-17.7-1.7c-1.5,1.8-4.5,1.5-2.7,4.1c-15.9-10.2-30.3,5.5-44.4-3c1.7,0,4-1.6,2.7-1.6l-12,1.7
		c0.9,3.1,1.6,1.8,4.1,4.2c-1.5,1.8-4.9,3.2-7.9,3.2c5.4-2,0-4.9-2.4-6.6c0.4,0.9-0.4,2-0.2,2.9c-6.3-5.4-1.1,6.1-9.6,2.5l0.5-1.6
		c-3.2,0.8-6.2,2.9-9.6,2.5c-1.4-3.5,3.4-1.6,3.6-4.6c-4.8,0.2-9.6,6.7-14,3.2c2.1-1,5-1,7.1-2c-4.8-4.1-5.3-3.1-8.9-3.7l0.3,0.1
		l-8.2-1.9l2.1,1.1c-6.1,9.2-12.4,1.7-20.5,7.7c7.9-5.7,1.3-3.3,1.9-7.3c-2.1-1.1-5.3-2.4-4.4-3.5c-3.9,3.2-6.5-2.5-11.9,2.2
		c-0.2-1.3-4.1-0.1-3.3-3.4c-5,1,1.2,2.2,0.8,3.9c-7.7,4.4-18.2-5.3-29.3,0.7c-9.6,2.5-11.4,6.8-20.3,9c-3-2.1,2.5-4.7,2.5-4.7
		c-4.9-1.9-8.5-1.5-13.1-0.1c0.9-1.1,0-2.1-1.4-3.5c-3.7,0.3-2.5,4.7-7.3,2.8c0.8-1.4,1.9-3.7,3.7-5.2c-4.3,1.2-8.6,3.6-13.1,4.7
		c-1.2-2.2,2.7-3.4,4.3-4.9c-5,1-13,2-14.6,5.6l3.2,1.3c-1.8,0.2-0.9-3.1,0.4-3.7c4.3-2.8,6.2,1.2,6.5,2.5l-3.2,0.8
		c3.3,7.6,12.8-1.2,19.2-0.8l-2.7,5.5l6.6-4.6c1.4,1.4,2.4,4.5-0.8,5.3c4.6,2.7,4.1-2,8,1.1c0.4,0.5,0.2,0.7-0.2,1l4.5-1.6
		c-0.9,1.2,0.7,3.9-2,3.1c8.1,3.2,13-4.1,16.1,0l-0.7,0.3c11.2-1.9,1.1-4,9.5-8.8l5.7,9.9l1.1-4c1.2,0.1,3.4,0.4,3,2.1
		c4.3-2.8-0.7-1.8,1.8-4.4c5.6,3.7,15.3-1.7,16.6,4.7c2-3.1-5.3-2.4,0.6-4.5c1.7,6.9,6.9-1.2,11.9,2c-1.6,3.6-6.4,1.7-1.3,4.9
		c3.1-6,9.9,1.3,14.2,0.2c0.2-4.8,9.3-2,16.5-3.6c-0.5,1.6,13.5,2.6,20.2,4.4l-0.2,0.8c1.3-4.8,8.2-3.9,13.2-4.9
		c-0.2,2.9-1.1,4-3.8,5.3l4.7,0c1.1-1.6,2.6-2.4,5.6-2.9l-1.2,3.6c6.3-0.2,12.7-4.3,20.7-1.8c0.5-3.4-6.4-9.4,2.1-11.7
		c0.3,1.8,0.6,5-1.6,5.7c0.7-0.2,2.6-1.5,4.1-0.7l-3.4,3.1c3.7,1.4,1.9-2.6,4.9-2.3c-0.1,2.6,2.2,1.9,1.8,3.9
		c-0.8,0.3-2.6-1.1-3.7-0.1c3.3,0.5,7.3,2,8.7,4c-0.3-1.5,0-3.5,2.4-3.8c6.3-0.2,2.2,3.1,5.8,4.5c1.5-1.8,5.5,0.1,5.6-3.8
		c1.8,0,2.2,1.8,2.9,2.9c3.3-1.7,15.2-0.5,11.5-4.6l-0.8-0.3c0.2-0.1,0.3-0.1,0.5-0.2c0,0,0,0,0,0h0c10.7-3.9,22.1,2.2,32.7,0.5
		l0,1.3c6.3-1.5,14.1-0.9,18.6-3.7c1.9,0,4.4,2.4,3.6,3.9c4.8-1,5.4-2.4,12.3-0.3c-4.9,2.3,1.7,2-5,1.7c6.3,1.1,7.7,3.2,14.4-0.4
		c-2.3,3.3,4.7,4.2,7.7,3.2l-4.4-2.4c3.4-0.5,6.3-0.2,9.3,0.1l-1.6,4.4c12.8,5.3,23.1-9.1,32.9-0.1c3.4-3.1-7-2.2-3.9-5.8
		c5.9,0.6,12.1,6.9,13.9,6.9c8.1,2.4,7.5-6.4,16-4.8c-1.1-1.6-2.1-5.7,4.2-7.2c5.9,0.6,7.3,6.6,3.5,7.8c-1.4,0.1-2.1-0.4-2-0.9
		c-1.9,0.6-4.4,1.2-2.1,2.9l0.8-1.6c2.9,1.6,11.1,1.4,9.1,4c4.5-1.5,1.9-2.6-1.4-3.4c7.6,2.3,11.8,0.1,19.6,1.6
		c-1.2-0.9-2.4-2.7-1.1-2.7c11.4,1.9,5-3,12.8-3.7c4.4,2.4-1.6,5.7,6.2,3.7c4.8,1.6,1,4.2-0.9,5.4c7.1-3,13.3,2,17.3,2.5l-3.7,1.3
		c2.2-0.8,4.1-0.7,5.9-0.7l-2.1-3.1c2.2,0.5,4.1,0.6,4,1.9c2.3-2.1-1.7-5.2,2.8-8c2.9,1.6,8.9-1.7,9.9,2.4c-9.2-1.4,1,4.2-6.8,4.8
		c1.5-0.5,3.3-0.5,5.5,0.1c0.3,0.5-0.3,0.9-0.9,1.1c8.8,3.7,4.1-4.7,13.2-4.6c-1.2,2.3,2.1,4.4,3.6,3.9c-3.7,0-1.8-3.9,1.6-5.7
		c5.9,1.8,6.4-1.4,9.4-1.1l-3.5-0.9c1.2-2.3,4.1-2,8.2-2.8c0.3,1.8-3.7,1.3-2.3,2.1c4.5-4.1,10.3,4.3,16.6,1.5
		c2.9,1.6,0.3,4.4,2.9,5.5c7.1-3,7.7,3.2,15.1,0.7c-2.1-3.1-2.5-2.4,2.7-5.5l-12.3,2.2l7.9-4.6c-3.7,0-7.8,2-10,1.4
		c3.7-2.6,3.4-1.8,1.6-4.4c5.1,4.7,10-2.8,15.9,0.4l-0.2,7.8c8.8,3.5,15.6-4,27-2l-3.7-1.4c1.5-3.1,7-0.4,10.7-1.7
		c-0.3,2.6,2,3.6,3.5,5.2c-0.2-1.9,8.4,0.2,9.4-5l5.1,3.4c9.2,1.4,10.5-7.4,19.4-6.5c-2.7,2.8,1.4,4.7-4.6,6.7c3,0,5.6,0.5,5.7-1.3
		c1.7,1.6,8.2-3.5,10.9-1c1.2-1.1,1.7-3.9,5-3.7c0.4,0.5,0,1.3,0,1.3c0-1.3,5.2-1.8,2.3-4.6c9.1,8.1,25.5-0.6,33.4,6.4
		c6.5-0.9,14.2-1.7,20.1-1.9c-0.4,0.8,0,1.3-1.1,1c8.1,2.4,5-7.5,14.2-4.8c4.7,4.2-4.9,2.3-2,3.9c1.3,8.6,11.1-1.2,17.3,3.8
		l-1.5,0.5c4.7,2.9,11.5-3.2,19.3-2.6c0,0-0.4,0.8,0,1.3c5.3-4.4,15.3-5.8,22.7-7c-2.3,3.4-3.4,1.8-2,5.2c3.3-0.5-1-5.5,5.7-6.4
		c2.2,1.8,7,3.4,7.6,7.1l-6.3,0.2c3.2,4.7,8.1-0.2,11.4,0.7l-0.4,2.1c9.6-0.7,9.8-5.9,20.1-5.5l-1.1-1.6c5.7-5.1,4.7,2.9,10.4-0.9
		l1.7,5.2c3.7-1.3,13.1-5,19.8-6c-3.8,3.9-11.6,5.8-16.5,8.1c3.7,0,12.6-0.4,14.5-3c-1.5,0.5-3.4,1.8-4.8,1c4.5-4.1,10.5-6.1,17.9-6
		c-1.3,10.1,19.2,2.5,24.5,10.4c13-3.7,25.9,1.6,41,1c-5.4-7.9,4.4-0.2,3.5-8.3c3.5-0.5,4.9-0.4,5.2,0.1l10.7,4.8
		c2.5,2.4-3.4,1.8-3,3.6c7.7,0.6,3.2,3.4,8.4,5.6c-1.1-2.9,2.7-4.1,7.1-3l-6.2-3.7c10.8-4.3,9.4,6.8,20.3,2.5l-3.4,2.5
		c5.6-1.5,20.6,0.1,26.1-6.4c1,0.9,2.3,3.1-0.2,3.7c13.4,1,29.8-6.9,40.2-2.9l-1,2c2.5-0.6,4.3-3.7,7.5-1.7c-0.2,0.8-1,2,0.2,2.1
		c1.3-0.7,6.6-3.5,9.9-2.3l-2.8,2.2c13,2.6,20-5.4,31-6.8c0,5.8,10.2,7.7,15.4,8.6l-0.2,0.8c15.2,0.7,25.8-4.8,39.9-7.1
		c8.7,6.3,29.6,2.6,43.6,6.2c-2.1-1.1,0.3-4.5,2.8-5.1c3.3,1.2,9.1-4,8.6,1.3l-1.2-0.1c2.5,5.2,9.3,3.8,14.5,4l0.9-7
		c13.8,10.1,36.2-3.7,43.8,5.4c3.3-1.7,7.5-1.7,10.8-3.5l-0.2,3.7c9.2,1,13.9,1.4,25.3,0.5l-2.3,2.7c6.4,0.2,8.1-10.8,14.1-11
		l1.8,5.6c11.2-0.1,22.6,4.8,33.7-0.2c-0.2,0.8-0.5,2.4-2.3,2.7c5.3,0.1,20.5,3.8,18.5-3.9c0.1,5,11.6,0.5,17.7-1.7l-0.9,3.7
		c5.1-4.7,5.3-6,12.4-7.3c1.7,0.5,1.5,2.9-0.8,2c5.7,1.9,4.4-3.5,11.3-1.5l-2.6,2.4c5.8,0.3,5.4-1,8.6-3.7c3.7-1.5,11,0.9,11.9,4.3
		c0.8-2,4-4.7,7.4-3.8c0.5,1.3-0.8,2-1.4,2.4c9.7,2.5,14.5-4.3,21.1-0.7c0.1,1.2,0.6,1.8,1.1,2.2c-7.7-0.1-13.9-0.3-13.4-0.6
		c0,3.4,6.2,4,1.3,8.7c5-2.6,13.6-8.1,19.7-6.5c0.3,0.3,0.6,0.7,0.8,1.2l-0.6,0.4c1.4,0.3,2.7,0,3.8-0.5c1.9,0.6,3.2,1,5,1
		c0.7,2.8,7.2,1.5,10.3,1.6c-0.3-3.7,3.8-3.1,0-6.2c0.5,0.3-0.6,0.4-2.7,0.6c-0.5,0.1-1,0.2-1.3,0.4c0.1-0.1,0.1-0.2,0.2-0.3
		c-2,0.1-4.7,0.2-7.7,0.2c2.5-1.9,5-3.5,8.5-1.4c1.6-2.4,3.4-4.8,4.3-6c4.3,5.2,12.5,8,13.6,11.2c9.5-2.1,22.4-1.4,28.4-8.3
		c2.7-0.9,3.1,2,4.1,3.1c-1.6,0.7-3.4,0.6-4.3,1.6c5.4-1.8,16-0.7,17.3-5.6c6.8,2.2-3.8,4.5,5.5,3.7l-1.3,1.5
		c18.4,7.8,29.9-12.4,50.3-2.4c-1.4-0.6-2.1-0.9-2.4-1.7c23.3,4.4,47.9-4.1,70.9,2.9c6.5,1.4,7.2-1.7,11.2-4.1l1.4,4l6.8-4.6
		c9.7-3.4,16.7,9.8,28.9,3.4l-1.6-2.7c4.4,0.5,13.9-1.6,13.2,1.5c0.4-0.5,1.4-2.8,3.2-1.4l0.1,2.1l10.8-3.6
		c8.4,1.5-1.3,8.3,10.9,8.7c4.5-0.8,12.9-6.1,11.2-7.5c-1.8-0.1-4.7-1.3-4.8-3.4l4.1-1.1c0.8-6.1,3.9-12.4-6.2-16.7l-7.1,3.8l-2.3-3
		l6-0.2c-3.4-2.8-5.5-0.3-7.9,1.4c-0.6-1.6-1.6-2.7-3-3.3l-7,5.9c-0.8-2.4,3.1-4.8-1.5-6.1c-3.3,2.7,3.1,5.4-2.3,7.2
		c-3.4-2.8-2.4-5.1-6.4-2.7c-0.6-1.6,0.3-2.6,1.9-3.3c-3.5,1.9-9.4,0.8-11.2,4.1c-3.5-3.4-12,0.9-11.6-4.9c-1.1,1.4-6.2,4.6-9.5,4.8
		c5.9-7-12.2-0.4-10.6-7.9c-4.4,6.3-15.9,2.8-23.7,6.3c0.4-0.5,1.3-1.5,2-1.2c-4.4-0.5-5.7-2.4-8.5-3.6c-0.6,5.2-7.4,6.4-11.1,9.5
		c-5.4-5,3.3-6.1,1.6-10.9c0.3,4.2-9.3,4.2-7.5,7.7c-4.1-3.1-3.5-1.5-5.7-5.8c-0.7,6.5-3.8,1.1-7.2,5.1c-6-3.2-1.5-6.1-8.1-4.1
		C1672.8,35.1,1678.6,32.8,1678.6,32.8z M1523.1,44C1523.1,43.9,1523.1,43.9,1523.1,44c1.3-0.2,2.5-0.2,3.2-0.3
		C1525.6,43.7,1524.7,43.8,1523.1,44z M1510,44c1.6,0.1,3.6,0.2,5.7,0.1c0.5,1.3,0,2.6-1.4,2.5C1515,45.9,1512,45.1,1510,44z
		 M1537.7,69.8c-2.1,0.5-2.8-0.2-3-1c1-0.1,2.1-0.2,3.6-0.4c0.1-0.1,0.2-0.3,0.2-0.5C1538.3,68.6,1538,69.3,1537.7,69.8z"/>
	<path class="st0" d="M1541.4,64.9c0.3-0.1,0.5-0.2,0.9-0.3c-0.4-0.3-0.8-0.6-1.2-0.8c-0.3,0.4-0.5,0.8-0.7,1.2
		C1540.6,64.9,1541,64.9,1541.4,64.9z"/>
	<path class="st0" d="M356.4,59.4l0.3,0.1c-0.2-0.1-0.4-0.3-0.6-0.5C356.3,59.1,356.3,59.2,356.4,59.4z"/>
	<polygon class="st0" points="1329.5,36.9 1329.5,37.9 1330.7,37.1 	"/>
	<path class="st0" d="M284.4,46.7c-0.1-0.3-0.4-0.7-0.9-0.9C283.5,45.9,283.9,46.3,284.4,46.7z"/>
	<path class="st0" d="M253.3,45.8l-4.4-1.3C250.8,45.3,252.2,45.6,253.3,45.8z"/>
	<path class="st0" d="M229.4,44c-0.3,0.7-0.4,1.1-0.5,1.6c0,0,0,0,0,0L229.4,44z"/>
	<path class="st0" d="M609.6,39.6c0.3,0,0.6-0.1,0.9-0.2C612.7,38.7,611.2,39,609.6,39.6z"/>
	<path class="st0" d="M496.4,48.3c1.2-0.7,2.4-1.3,3.6-1.8C498,46.3,496.5,46.2,496.4,48.3z"/>
	<path class="st0" d="M735.9,35.2C735.9,35.2,735.9,35.2,735.9,35.2c0.3,0.1,0.5,0.1,0.8,0.1L735.9,35.2z"/>
	<path class="st0" d="M505.3,46.6c-2-0.7-3.7-0.6-5.3-0.1C501.7,46.8,503.7,47.2,505.3,46.6z"/>
	<path class="st0" d="M125.7,42.3l-1.2-0.2c0,0.2,0,0.4-0.1,0.6L125.7,42.3z"/>
	<path class="st0" d="M124.4,42.7l-1.3,0.4C123.8,43.2,124.3,43.1,124.4,42.7z"/>
	<path class="st0" d="M120.5,44.1l2.7-0.9C122.2,43.2,121.1,43.1,120.5,44.1z"/>
	<path class="st0" d="M157.4,44l0.4-1.3C157.6,42.9,157.4,43.4,157.4,44z"/>
	<path class="st0" d="M167,43.6c-2.3-0.3-5.8-2.9-9-2l-0.3,1.1C159.3,40.7,164.8,45.9,167,43.6z"/>
	<path class="st0" d="M207.2,60.3l-8.1-1.1c1.4,1.4,3.3,3.4-0.4,3.7C208.9,67.2,196.6,59.7,207.2,60.3z"/>
	<path class="st0" d="M232.2,62.3c-4.3,0.7,0.1,2.1-0.2,2.9C234.7,63.9,235.4,63.6,232.2,62.3z"/>
	<path class="st0" d="M412.8,62.4l-0.4,3.4C415.7,65.2,412.4,64.4,412.8,62.4z"/>
	<polygon class="st0" points="447.3,44.9 444.1,42.8 442.5,45.9 	"/>
	<polygon class="st0" points="467.7,69 466.2,69.4 471.8,68.2 	"/>
	<path class="st0" d="M771,67.8l-1-4.2C767.8,64.3,767.3,69,771,67.8z"/>
	<path class="st0" d="M902,63.5c1.4,2.1,5.1,3.4,7.4,1.4C906.4,64.6,903.5,63,902,63.5z"/>
	<polygon class="st0" points="1294.8,70.3 1292.1,71.7 1297.1,70.5 	"/>
</g>
</svg>
