<?xml version="1.0" encoding="utf-8"?>
<!-- Generator: Adobe Illustrator 22.0.0, SVG Export Plug-In . SVG Version: 6.00 Build 0)  -->
<svg version="1.1" id="Layer_1" xmlns="http://www.w3.org/2000/svg" xmlns:xlink="http://www.w3.org/1999/xlink" x="0px" y="0px"
	 viewBox="0 0 1920 107.7" style="enable-background:new 0 0 1920 107.7;" xml:space="preserve">
<style type="text/css">
	.st0{fill:#5B6E7C;}
</style>
<g>
	<path class="st0" d="M1823.6,62.6c0.9-1.1,0.4-3.7-2.1-3.2l-1.8,4.4L1823.6,62.6z"/>
	<path class="st0" d="M1806.7,54.5c-2.9,2.1-6.3,5.8-4.4,9.9c2.9-4.2,3.6-2.4,6.8-7.4c2.5-0.5,4.4,1.4,4,3c0.9-1.1,3.9,1,5.2-1.8
		c-3.3-3.4-7.4-3.5-11.7-0.7C1805.6,56.5,1806.5,55.4,1806.7,54.5z"/>
	<path class="st0" d="M1561.8,47.7l1.6,0.5C1562.9,48,1562.4,47.8,1561.8,47.7z"/>
	<path class="st0" d="M1410,45.3c1.2-0.1,1.6-0.5,1.7-0.9C1410.6,44.7,1409.7,44.9,1410,45.3z"/>
	<path class="st0" d="M1384.1,40.5c0.6,0.1,1,0.2,1.5,0.3C1385,40.4,1384.4,40.2,1384.1,40.5z"/>
	<path class="st0" d="M1561.8,47.7l-4.1-1.4C1557.4,47.8,1559.8,47.4,1561.8,47.7z"/>
	<path class="st0" d="M1772.9,65.1c0.8-0.2,1.6-0.6,2.2-1.2c-0.7,0.2-1.4,0.3-2.1,0.5C1773,64.6,1773,64.8,1772.9,65.1z"/>
	<path class="st0" d="M1628.7,44.2l1.2,0c0.4-0.5,0.7-1.1,1-1.8L1628.7,44.2z"/>
	<path class="st0" d="M1680,43.5c-1.2-0.2-1.6,3.5-2,5.2c0.7-1.5,1.5-2.3,2.5-2.5C1680.6,45.4,1680.4,44.6,1680,43.5z"/>
	<path class="st0" d="M1761.4,50l1.4-0.5C1762.5,49.7,1761.9,49.8,1761.4,50z"/>
	<path class="st0" d="M1591.9,43.4c-0.1-0.6-0.3-1-0.5-1.3C1591.5,42.5,1591.6,43,1591.9,43.4z"/>
	<path class="st0" d="M155.8,71.3c0-0.3,0-0.4,0-0.7C155.5,71,155.4,71.3,155.8,71.3z"/>
	<path class="st0" d="M96.2,52.9l0.8-0.2c0.1-0.7,0.2-1.4,0.2-2.1L96.2,52.9z"/>
	<path class="st0" d="M1336.7,35.8c0.1,0,0.1,0,0.2,0.1C1338.1,35.4,1337.4,35.5,1336.7,35.8z"/>
	<path class="st0" d="M901.3,38.5c4.9,3.3-8,4.3-0.6,7.9C900,45,907.4,40.7,901.3,38.5z"/>
	<path class="st0" d="M1771.6,64.6c-0.7,0-1.4,0.1-2.1,0C1770.5,64.8,1771.1,64.7,1771.6,64.6z"/>
	<path class="st0" d="M900.7,46.4C900.7,46.5,900.7,46.5,900.7,46.4l0.8,0.4C901.1,46.7,901,46.6,900.7,46.4z"/>
	<path class="st0" d="M1227.4,38c0.2,0.7,0.7,1.2,1.1,1.6C1228.5,39.2,1228.2,38.8,1227.4,38z"/>
	<path class="st0" d="M1308.8,43.3l-2-0.5C1307.6,43.1,1308.2,43.2,1308.8,43.3z"/>
	<path class="st0" d="M1185.1,43.2c-1.1-0.3-1.5-0.8-3-0.3c0.1,0.2,0.3,0.3,0.5,0.5C1183.2,42.9,1183.9,42.6,1185.1,43.2z"/>
	<path class="st0" d="M1141.1,43.2c0.2,0.3,0.5,0.5,0.8,0.7c0.4-0.1,0.9-0.1,1.4-0.2L1141.1,43.2z"/>
	<path class="st0" d="M289.5,69.5c-1-1-1.6-2.2-2-3.3C288.1,68.8,281.6,69.7,289.5,69.5z"/>
	<path class="st0" d="M1772.9,63c-0.3,0.9-0.6,1.4-1.3,1.6c0.5,0,1-0.1,1.5-0.2C1773.2,63.8,1773.2,63.3,1772.9,63z"/>
	<path class="st0" d="M1183.3,72.5l-7-0.5C1178.3,72.3,1180.8,72.5,1183.3,72.5z"/>
	<path class="st0" d="M605.1,69l-1.6,0.4C604.1,69.5,604.6,69.4,605.1,69z"/>
	<path class="st0" d="M1155.6,72.5c-1.2-1.3-2.6-2.1-3.9-2.6c-0.3,0.3-0.6,0.5-0.8,1L1155.6,72.5z"/>
	<path class="st0" d="M287.4,66.1C287.4,66.1,287.4,66.2,287.4,66.1C287.4,66.2,287.4,66.1,287.4,66.1z"/>
	<path class="st0" d="M241.4,74.9c6.7,0.1,3.1-4.8,4.5-7.6c7.9-1.4,3.7,3.6,6.4,6.1c5-1.3,8.8-5.8,12.5-5.6c0.3,0.8,1,1.1,0.2,2.1
		c5.2-3.9,15.6-0.2,21.7-5.1c0.5,0.4,0.7,0.8,0.8,1.2c-1-2.4-1.1-4.9-0.9-6.7c3-0.1,5.5-3.1,6.7,0.1c-1.8-0.1-2,1.2-2.8,2.2l3.1-1.4
		c2.8,4.6-4.3,1.6-4.3,5c6.1-1.5,13.2-5.3,17.9-4c1,4.5-10.9,1.5-4.7,5.5l-7.2-1.7c5.5,7.1-4.4-0.5,0.7,7.1c9.5,1.3,10.6-2.3,20.1-1
		c2.1-2.5-0.7-3.7,1.4-6.2c13.5-4.5,10.6,11.3,20.5,5.3c2.6-3,3.6-8.7,10.6-5.7l-2.4,5.1c9.2,0.5,5.3-7.3,14.9-3.9
		c-1.7,2-7.2,1.7-5.8,2.3c6.3,4,4.4-2.9,9.2-2.9l1,4.5c9.8-0.7,20.6-3.9,31.5-4.8c-0.6,1.3-2.5,2.7,0.1,4.1
		c13.7-2.2,29.3,0.5,42.5,3.2l5.1-3.9c1.2,0,2.2,1.8,0.9,2.5c5.2,1.5,0.3-2.5,2.7-4c2.9-0.3,3.9,2.2,2,3.4
		c9.1-3.3,25.9-7.1,35.5-2.9l-1.9,1.2c7.5,1.6,8.4-7.9,15.3-4.3l-1.3,0.7c16.2,1.7,34.1-1.9,46.4,4c2.3-5.6,16,2.5,17.1-5.3
		c9.2,3.9,6.6,5.3,19.6,7.8c3.5,0.4,5.2-4.9,9.5-5.7l0.1,4.1l5.8-4.3l3.1,4.9l4-1c-1.6-0.2-3.4-1.8-3.2-3c6.3-1.8,15.4,2.8,15.5,4.9
		l14.9-3.4c-0.3,1.6-2.8,2.2-4.8,3.2c8-4.2,1.4,4.3,8.7,0.5c-1-0.9,0.5-2.4,0.7-3.2c3.6,2.5,11.9,2.5,18,1.4l-1.2,2.8
		c11.1,0.7,23.3-1.3,35.7-1.3c-4.4-1.3-3.4-6.2,0.2-6.6l1.5,4.3c2.3-2.7-3.8-1.6,1-4.9c4.6,0.5,3.1,4.9,0.5,6.3l5.6-1.5
		c0.3,1.3-1,2-1.3,3.6c2.3-2.7,9.7,4.3,13.1-0.3l0.3,1.3c12.4,0,18-1.4,28.1-1.7c0.2-3.7,4.1-2.9,7.2-5.9c7.4,1.2,15.7,4.1,24.6,3.8
		c6.3-1.8,1.8-3.1,4.7-5.4c0.5,3.4,9.4,3.1,4.8,5.5c10.7-0.6,13.7-0.7,27.3-3.4c-1.5-1.4-3.1-2-2.3-3.1c2.5-0.6,5.6,1.4,5.3,3
		l-0.7,0.4c15.2-5.1,35.2,9.9,47.3,2.8l-0.7,0.3l12.6-3.7c5.8,0.6-3.5,2.5,0.8,4.6c13.6-5.6,21.4,0.8,32.6-2.9
		c8.7,10,30.7-0.7,42.4,5.7l-0.7-2.4c3-2.3,3.7,1.3,5.9,1.9c-0.3-1.8-3.3-2.1-1.4-3.4c25.6-2.8,52.8,3.4,79,5.6
		c9.6,0.6,5.4-12.2,17.5-6.5l-3.4,4.4c19.3-5.2,39.6,0.2,58.5-4.3c-1.1,1-1.2,2.3-3,2.3c4,3.2,14.8,0.2,14.9-2.4
		c2.9,0.3,0.7,2.3,2.5,3.7c4,1.9,10.1-4,12.2-0.9c0.4,0.5-1.1,1-1.9,1.3c2.6-1.5,12.2,0.4,9.7-3.3c7.1,1.7,13.6-1.6,19.3,0.5
		c3.7-4.1,12.2,2,13.3-3.8c-0.5,6,12.5,4.8,17,2c-1.5,1.8,3.9,1.9,2.1,4.4c5.1-0.1,9.8-1.2,8.9-4.3c9.5,7.1,19-5.8,24.3,3.4
		c15.2-3.2,29.3-5.4,43-6.8c-0.5,6-15.2,0.6-14.6,6.8c13-2.5,20.5-7.6,33.4-6.1c3.3,0.8-1.9,2.6-3,3.6c13-2.5,25.1,0.5,36.7-2.7
		c0,0.6-1.3,1.2-2.5,1.6c2.3-0.2,5.3,0.9,5-1.8l-2.2,0.7c-3.6-3.9,9-8.2,9.5-10.3c-3.9,7.8,11.4,2,5.3,11.8c1.5-0.5,3.4-1.8,3-3.6
		c2.2,0.5,2.9,1.6,0.7,3.6c8.2-1.5,5.3-4.4,12.7-4.3c0,1.3-1.5,1.8-2.3,3.4c3.7-2.6,7.5-5.1,13.8-4c-0.4,0.8,0.3,1.8-1.5,1.8
		c10.7-0.4,18.3-6.8,30.1-4.3c-3.5,5.7,4,1.9,4.6,6.8l6.3-1.5l-2.5-2.4c5.5,0.1,10.4-3.5,15.2-1.9l-4.1,2l10.4-0.9l-5.9-1.9
		c5.6-2.5-0.6-6.2,6.8-4.9c-1.5,0.5,5.5,0.1,8.4,3c0,0,0,0,0,0c2.7-1.6,5.6-3.2,9.7-2c1.1,1.6-0.9,5.5-0.2,6.5
		c2.7-4.1,13-1.1,16.4-5.5c-1.1,1-1.2,3.6-0.8,4.1l2.3-3.4c2.6,1.1,2.9,1.6,2.5,3.7c7.7,0.6-2.5-6.3,6.7-3.6
		c-0.7,0.3-0.4,0.8-1.9,1.3c9.2,1.4,17.8-2.1,26.3-0.5c2.5,5-7.4,1.2-4.5,5.4c12.2-0.9,25.3-5.9,37.1-4.8l-2.2-0.5
		c1.6-7,8.8,3.5,14.8,0.2c-1.5,0.5-1.9,3.9-1.5,3.1c8.1,1.1,16.5-1.7,28.8-3.9l-1.5,1.8c4.8,1.6,12.5,0.9,17.7,1.7
		c1.5-1.8,4.5-1.5,2.7-4.1c15.9,10.2,30.3-5.5,44.4,3c-1.7,0-4,1.6-2.7,1.6l12-1.7c-0.9-3.1-1.6-1.8-4.1-4.2
		c1.5-1.8,4.9-3.2,7.9-3.2c-5.4,2,0,4.9,2.4,6.6c-0.4-0.9,0.4-2,0.2-2.9c6.3,5.4,1.1-6.1,9.6-2.5l-0.5,1.6c3.2-0.8,6.2-2.9,9.6-2.5
		c1.4,3.5-3.4,1.6-3.6,4.6c4.8-0.2,9.6-6.7,14-3.2c-2.1,1-5,1-7.1,2c4.8,4.1,5.3,3.1,8.9,3.7l-0.3-0.1l8.2,1.9l-2.1-1.1
		c6.1-9.2,12.4-1.7,20.5-7.7c-7.9,5.7-1.3,3.3-1.9,7.3c2.1,1.1,5.3,2.4,4.4,3.5c3.9-3.2,6.5,2.5,11.9-2.2c0.2,1.3,4.1,0.1,3.3,3.4
		c5-1-1.2-2.2-0.8-3.9c7.7-4.4,18.2,5.3,29.3-0.7c9.6-2.5,11.4-6.8,20.3-9c3,2.1-2.5,4.7-2.5,4.7c4.9,1.9,8.5,1.5,13.1,0.1
		c-0.9,1.1,0,2.1,1.4,3.5c3.7-0.3,2.5-4.7,7.3-2.8c-0.8,1.4-1.9,3.7-3.7,5.2c4.3-1.2,8.6-3.6,13.1-4.7c1.2,2.2-2.7,3.4-4.3,4.9
		c5-1,13-2,14.6-5.6l-3.2-1.3c1.8-0.2,0.9,3.1-0.4,3.7c-4.3,2.8-6.2-1.2-6.5-2.5l3.2-0.8c-3.3-7.6-12.8,1.2-19.2,0.8l2.7-5.5
		l-6.6,4.6c-1.4-1.4-2.4-4.5,0.8-5.3c-4.6-2.7-4.1,2-8-1.1c-0.4-0.5-0.2-0.7,0.2-1l-4.5,1.6c0.9-1.2-0.7-3.9,2-3.1
		c-8.1-3.2-13,4.1-16.1,0l0.7-0.3c-11.2,1.9-1.1,4-9.5,8.8l-5.7-9.9l-1.1,4c-1.2-0.1-3.4-0.4-3-2.1c-4.3,2.8,0.7,1.8-1.8,4.4
		c-5.6-3.7-15.3,1.7-16.6-4.7c-2,3.1,5.3,2.4-0.6,4.5c-1.7-6.9-6.9,1.2-11.9-2c1.6-3.6,6.4-1.7,1.3-4.9c-3.1,6-9.9-1.3-14.2-0.2
		c-0.2,4.8-9.3,2-16.5,3.6c0.5-1.6-13.5-2.6-20.2-4.4l0.2-0.8c-1.3,4.8-8.2,3.9-13.2,4.9c0.2-2.9,1.1-4,3.8-5.3l-4.7,0
		c-1.1,1.6-2.6,2.4-5.6,2.9l1.2-3.6c-6.3,0.2-12.7,4.3-20.7,1.8c-0.5,3.4,6.4,9.4-2.1,11.7c-0.3-1.8-0.6-5,1.6-5.7
		c-0.7,0.2-2.6,1.5-4.1,0.7l3.4-3.1c-3.7-1.4-1.9,2.6-4.9,2.3c0.1-2.6-2.2-1.9-1.8-3.9c0.8-0.3,2.6,1.1,3.7,0.1
		c-3.3-0.5-7.3-2-8.7-4c0.3,1.5,0,3.5-2.4,3.8c-6.3,0.2-2.2-3.1-5.8-4.5c-1.5,1.8-5.5-0.1-5.6,3.8c-1.8,0-2.2-1.8-2.9-2.9
		c-3.3,1.7-15.2,0.5-11.5,4.6l0.8,0.3c-0.2,0.1-0.3,0.1-0.5,0.2c0,0,0,0,0,0h0c-10.7,3.9-22.1-2.2-32.7-0.5l0-1.3
		c-6.3,1.5-14.1,0.9-18.6,3.7c-1.9,0-4.4-2.4-3.6-3.9c-4.8,1-5.4,2.4-12.3,0.3c4.9-2.3-1.7-2,5-1.7c-6.3-1.1-7.7-3.2-14.4,0.4
		c2.3-3.3-4.7-4.2-7.7-3.2l4.4,2.4c-3.4,0.5-6.3,0.2-9.3-0.1l1.6-4.4c-12.8-5.3-23.1,9.1-32.9,0.1c-3.4,3.1,7,2.2,3.9,5.8
		c-5.9-0.6-12.1-6.9-13.9-6.9c-8.1-2.4-7.5,6.4-16,4.8c1.1,1.6,2.1,5.7-4.2,7.2c-5.9-0.6-7.3-6.6-3.5-7.8c1.4-0.1,2.1,0.4,2,0.9
		c1.9-0.6,4.4-1.2,2.1-2.9L1413,43c-2.9-1.6-11.1-1.4-9.1-4c-4.5,1.5-1.9,2.6,1.4,3.4c-7.6-2.3-11.8-0.1-19.6-1.6
		c1.2,0.9,2.4,2.7,1.1,2.7c-11.4-1.9-5,3-12.8,3.7c-4.4-2.4,1.6-5.7-6.2-3.7c-4.8-1.6-1-4.2,0.9-5.4c-7.1,3-13.3-2-17.3-2.5l3.7-1.3
		c-2.2,0.8-4.1,0.7-5.9,0.7l2.1,3.1c-2.2-0.5-4.1-0.6-4-1.9c-2.3,2.1,1.7,5.2-2.8,8c-2.9-1.6-8.9,1.7-9.9-2.4c9.2,1.4-1-4.2,6.8-4.8
		c-1.5,0.5-3.3,0.5-5.5-0.1c-0.3-0.5,0.3-0.9,0.9-1.1c-8.8-3.7-4.1,4.7-13.2,4.6c1.2-2.3-2.1-4.4-3.6-3.9c3.7,0,1.8,3.9-1.6,5.7
		c-5.9-1.8-6.4,1.4-9.4,1.1l3.5,0.9c-1.2,2.3-4.1,2-8.2,2.8c-0.3-1.8,3.7-1.3,2.3-2.1c-4.5,4.1-10.3-4.3-16.6-1.5
		c-2.9-1.6-0.3-4.4-2.9-5.5c-7.1,3-7.7-3.2-15.1-0.7c2.1,3.1,2.5,2.4-2.7,5.5l12.3-2.2l-7.9,4.6c3.7,0,7.8-2,10-1.4
		c-3.7,2.6-3.4,1.8-1.6,4.4c-5.1-4.7-10,2.8-15.9-0.4l0.2-7.8c-8.8-3.5-15.6,4-27,2l3.7,1.4c-1.5,3.1-7,0.4-10.7,1.7
		c0.3-2.6-2-3.6-3.5-5.2c0.2,1.9-8.4-0.2-9.4,5l-5.1-3.4c-9.2-1.4-10.5,7.4-19.4,6.5c2.7-2.8-1.4-4.7,4.6-6.7c-3,0-5.6-0.5-5.7,1.3
		c-1.7-1.6-8.2,3.5-10.9,1c-1.2,1.1-1.7,3.9-5,3.7c-0.4-0.5,0-1.3,0-1.3c0,1.3-5.2,1.8-2.3,4.6c-9.1-8.1-25.5,0.6-33.4-6.4
		c-6.5,0.9-14.2,1.7-20.1,1.9c0.4-0.8,0-1.3,1.1-1c-8.1-2.4-5,7.5-14.2,4.8c-4.7-4.2,4.9-2.3,2-3.9c-1.3-8.6-11.1,1.2-17.3-3.8
		l1.5-0.5c-4.7-2.9-11.5,3.2-19.3,2.6c0,0,0.4-0.8,0-1.3c-5.3,4.4-15.3,5.8-22.7,7c2.3-3.4,3.4-1.8,2-5.2c-3.3,0.5,1,5.5-5.7,6.4
		c-2.2-1.8-7-3.4-7.6-7.1l6.3-0.2c-3.2-4.7-8.1,0.2-11.4-0.7l0.4-2.1c-9.6,0.7-9.8,5.9-20.1,5.5l1.1,1.6c-5.7,5.1-4.7-2.9-10.4,0.9
		l-1.7-5.2c-3.7,1.3-13.1,5-19.8,6c3.8-3.9,11.6-5.8,16.5-8.1c-3.7,0-12.6,0.4-14.5,3c1.5-0.5,3.4-1.8,4.8-1
		c-4.5,4.1-10.5,6.1-17.9,6c1.3-10.1-19.2-2.5-24.5-10.4c-13,3.7-25.9-1.6-41-1c5.4,7.9-4.4,0.2-3.5,8.3c-3.5,0.5-4.9,0.4-5.2-0.1
		L890,41.6c-2.5-2.4,3.4-1.8,3-3.6c-7.7-0.6-3.2-3.4-8.4-5.6c1.1,2.9-2.7,4.1-7.1,3l6.2,3.7c-10.8,4.3-9.4-6.8-20.3-2.5l3.4-2.5
		c-5.6,1.5-20.6-0.1-26.1,6.4c-1-0.9-2.3-3.1,0.2-3.7c-13.4-1-29.8,6.9-40.2,2.9l1-2c-2.5,0.6-4.3,3.7-7.5,1.7c0.2-0.8,1-2-0.2-2.1
		c-1.3,0.7-6.6,3.5-9.9,2.3l2.8-2.2c-13-2.6-20,5.4-31,6.8c0-5.8-10.2-7.7-15.4-8.6l0.2-0.8c-15.2-0.7-25.8,4.8-39.9,7.1
		c-8.7-6.3-29.6-2.6-43.6-6.2c2.1,1.1-0.3,4.5-2.8,5.1c-3.3-1.2-9.1,4-8.6-1.3l1.2,0.1c-2.5-5.2-9.3-3.8-14.5-4l-0.9,7
		c-13.8-10.1-36.2,3.7-43.8-5.4c-3.3,1.7-7.5,1.7-10.8,3.5l0.2-3.7c-9.2-1-13.9-1.4-25.3-0.5l2.3-2.7c-6.4-0.2-8.1,10.8-14.1,11
		l-1.8-5.6c-11.2,0.1-22.6-4.8-33.7,0.2c0.2-0.8,0.5-2.4,2.3-2.7c-5.3-0.1-20.5-3.8-18.5,3.9c-0.1-5-11.6-0.5-17.7,1.7l0.9-3.7
		c-5.1,4.7-5.3,6-12.4,7.3c-1.7-0.5-1.5-2.9,0.8-2c-5.7-1.9-4.4,3.5-11.3,1.5l2.6-2.4c-5.8-0.3-5.4,1-8.6,3.7
		c-3.7,1.5-11-0.9-11.9-4.3c-0.8,2-4,4.7-7.4,3.8c-0.5-1.3,0.8-2,1.4-2.4c-9.7-2.5-14.5,4.3-21.1,0.7c-0.1-1.2-0.6-1.8-1.1-2.2
		c7.7,0.1,13.9,0.3,13.4,0.6c0-3.4-6.2-4-1.3-8.7c-5,2.6-13.6,8.1-19.7,6.5c-0.3-0.3-0.6-0.7-0.8-1.2l0.6-0.4
		c-1.4-0.3-2.7,0-3.8,0.5c-1.9-0.6-3.2-1-5-1c-0.7-2.8-7.2-1.5-10.3-1.6c0.3,3.7-3.8,3.1,0,6.2c-0.5-0.3,0.6-0.4,2.7-0.6
		c0.5-0.1,1-0.2,1.3-0.4c-0.1,0.1-0.1,0.2-0.2,0.3c2-0.1,4.7-0.2,7.7-0.2c-2.5,1.9-5,3.5-8.5,1.4c-1.6,2.4-3.4,4.8-4.3,6
		c-4.3-5.2-12.5-8-13.6-11.2c-9.5,2.1-22.4,1.4-28.4,8.3c-2.7,0.9-3.1-2-4.1-3.1c1.6-0.7,3.4-0.6,4.3-1.6c-5.4,1.8-16,0.7-17.3,5.6
		c-6.8-2.2,3.8-4.5-5.5-3.7l1.3-1.5c-18.4-7.8-29.9,12.4-50.3,2.4c1.4,0.6,2.1,0.9,2.4,1.7c-23.3-4.4-47.9,4.1-70.9-2.9
		c-6.5-1.4-7.2,1.7-11.2,4.1l-1.4-4l-6.8,4.6c-9.7,3.4-16.7-9.8-28.9-3.4l1.6,2.7c-4.4-0.5-13.9,1.6-13.2-1.5
		c-0.4,0.5-1.4,2.8-3.2,1.4l-0.1-2.1l-10.8,3.6c-8.4-1.5,1.3-8.3-10.9-8.7c-4.5,0.8-12.9,6.1-11.2,7.5c1.8,0.1,4.7,1.3,4.8,3.4
		l-4.1,1.1c-0.8,6.1-3.9,12.4,6.2,16.7l7.1-3.8l2.3,3l-6,0.2c3.4,2.8,5.5,0.3,7.9-1.4c0.6,1.6,1.6,2.7,3,3.3l7-5.9
		c0.8,2.4-3.1,4.8,1.5,6.1c3.3-2.7-3.1-5.4,2.3-7.2c3.4,2.8,2.4,5.1,6.4,2.7c0.6,1.6-0.3,2.6-1.9,3.3c3.5-1.9,9.4-0.8,11.2-4.1
		c3.5,3.4,12-0.9,11.6,4.9c1.1-1.4,6.2-4.6,9.5-4.8c-5.9,7,12.2,0.4,10.6,7.9c4.4-6.3,15.9-2.8,23.7-6.3c-0.4,0.5-1.3,1.5-2,1.2
		c4.4,0.5,5.7,2.4,8.5,3.6c0.6-5.2,7.4-6.4,11.1-9.5c5.4,5-3.3,6.1-1.6,10.9c-0.3-4.2,9.3-4.2,7.5-7.7c4.1,3.1,3.5,1.5,5.7,5.8
		c0.7-6.5,3.8-1.1,7.2-5.1c6,3.2,1.5,6.1,8.1,4.1C247.2,72.6,241.4,74.9,241.4,74.9z M396.9,63.7C396.9,63.8,396.9,63.8,396.9,63.7
		c-1.3,0.2-2.5,0.2-3.2,0.3C394.4,64,395.3,63.9,396.9,63.7z M410,63.7c-1.6-0.1-3.6-0.2-5.7-0.1c-0.5-1.3,0-2.6,1.4-2.5
		C405,61.9,408,62.6,410,63.7z M382.3,38c2.1-0.5,2.8,0.2,3,1c-1,0.1-2.1,0.2-3.6,0.4c-0.1,0.1-0.2,0.3-0.2,0.5
		C381.7,39.1,382,38.5,382.3,38z"/>
	<path class="st0" d="M378.6,42.8c-0.3,0.1-0.5,0.2-0.9,0.3c0.4,0.3,0.8,0.6,1.2,0.8c0.3-0.4,0.5-0.8,0.7-1.2
		C379.4,42.8,379,42.8,378.6,42.8z"/>
	<path class="st0" d="M1563.6,48.3l-0.3-0.1c0.2,0.1,0.4,0.3,0.6,0.5C1563.7,48.6,1563.7,48.5,1563.6,48.3z"/>
	<polygon class="st0" points="590.5,70.8 590.5,69.9 589.3,70.7 	"/>
	<path class="st0" d="M1635.6,61.1c0.1,0.3,0.4,0.7,0.9,0.9C1636.5,61.8,1636.1,61.4,1635.6,61.1z"/>
	<path class="st0" d="M1666.7,61.9l4.4,1.3C1669.2,62.5,1667.8,62.1,1666.7,61.9z"/>
	<path class="st0" d="M1690.6,63.7c0.3-0.7,0.4-1.1,0.5-1.6c0,0,0,0,0,0L1690.6,63.7z"/>
	<path class="st0" d="M1310.4,68.1c-0.3,0-0.6,0.1-0.9,0.2C1307.3,69,1308.8,68.7,1310.4,68.1z"/>
	<path class="st0" d="M1423.6,59.4c-1.2,0.7-2.4,1.3-3.6,1.8C1422,61.5,1423.5,61.5,1423.6,59.4z"/>
	<path class="st0" d="M1184.1,72.6C1184.1,72.6,1184.1,72.5,1184.1,72.6c-0.3-0.1-0.5-0.1-0.8-0.1L1184.1,72.6z"/>
	<path class="st0" d="M1414.7,61.1c2,0.7,3.7,0.6,5.3,0.1C1418.3,60.9,1416.3,60.6,1414.7,61.1z"/>
	<path class="st0" d="M1794.3,65.4l1.2,0.2c0-0.2,0-0.4,0.1-0.6L1794.3,65.4z"/>
	<path class="st0" d="M1795.6,65l1.3-0.4C1796.2,64.5,1795.7,64.6,1795.6,65z"/>
	<path class="st0" d="M1799.5,63.6l-2.7,0.9C1797.8,64.6,1798.9,64.7,1799.5,63.6z"/>
	<path class="st0" d="M1762.6,63.7l-0.4,1.3C1762.4,64.8,1762.6,64.3,1762.6,63.7z"/>
	<path class="st0" d="M1753,64.1c2.3,0.3,5.8,2.9,9,2l0.3-1.1C1760.7,67.1,1755.2,61.8,1753,64.1z"/>
	<path class="st0" d="M1712.8,47.5l8.1,1.1c-1.4-1.4-3.3-3.4,0.4-3.7C1711.1,40.6,1723.4,48,1712.8,47.5z"/>
	<path class="st0" d="M1687.8,45.4c4.3-0.7-0.1-2.1,0.2-2.9C1685.3,43.8,1684.6,44.1,1687.8,45.4z"/>
	<path class="st0" d="M1507.2,45.4l0.4-3.4C1504.3,42.5,1507.6,43.3,1507.2,45.4z"/>
	<polygon class="st0" points="1472.7,62.8 1475.9,64.9 1477.5,61.8 	"/>
	<polygon class="st0" points="1452.3,38.8 1453.8,38.3 1448.2,39.5 	"/>
	<path class="st0" d="M1149,40l1,4.2C1152.2,43.4,1152.7,38.7,1149,40z"/>
	<path class="st0" d="M1018,44.2c-1.4-2.1-5.1-3.4-7.4-1.4C1013.6,43.1,1016.5,44.7,1018,44.2z"/>
	<polygon class="st0" points="625.2,37.4 627.9,36 622.9,37.2 	"/>
</g>
</svg>
