<?xml version="1.0" encoding="utf-8"?>
<!-- Generator: Adobe Illustrator 22.0.0, SVG Export Plug-In . SVG Version: 6.00 Build 0)  -->
<svg version="1.1" id="Layer_1" xmlns="http://www.w3.org/2000/svg" xmlns:xlink="http://www.w3.org/1999/xlink" x="0px" y="0px"
	 viewBox="0 0 2378.2 297.1" style="enable-background:new 0 0 2378.2 297.1;" xml:space="preserve">
<style type="text/css">
	.st0{fill:none;}
	.st1{fill:#D7E5E0;}
	.st2{fill:#E7F0ED;}
	.st3{fill:url(#_x36__dpi_60_x25_);}
</style>
<pattern  x="20" y="-318.9" width="48" height="48" patternUnits="userSpaceOnUse" id="_x36__dpi_60_x25_" viewBox="7.2 -55.2 48 48" style="overflow:visible;">
	<g>
		<rect x="7.2" y="-55.2" class="st0" width="48" height="48"/>
		<g>
			<path class="st1" d="M31.2,0c4,0,7.2-3.2,7.2-7.2c0-4-3.2-7.2-7.2-7.2c-4,0-7.2,3.2-7.2,7.2C24-3.2,27.2,0,31.2,0z"/>
			<path class="st1" d="M55.2,0c4,0,7.2-3.2,7.2-7.2c0-4-3.2-7.2-7.2-7.2c-4,0-7.2,3.2-7.2,7.2C48-3.2,51.2,0,55.2,0z"/>
			<path class="st1" d="M31.2-24c4,0,7.2-3.2,7.2-7.2c0-4-3.2-7.2-7.2-7.2c-4,0-7.2,3.2-7.2,7.2C24-27.2,27.2-24,31.2-24z"/>
			<path class="st1" d="M55.2-24c4,0,7.2-3.2,7.2-7.2c0-4-3.2-7.2-7.2-7.2c-4,0-7.2,3.2-7.2,7.2C48-27.2,51.2-24,55.2-24z"/>
			<path class="st1" d="M43.2-12c4,0,7.2-3.2,7.2-7.2c0-4-3.2-7.2-7.2-7.2c-4,0-7.2,3.2-7.2,7.2C36-15.2,39.2-12,43.2-12z"/>
			<path class="st1" d="M19.2-12c4,0,7.2-3.2,7.2-7.2c0-4-3.2-7.2-7.2-7.2c-4,0-7.2,3.2-7.2,7.2C12-15.2,15.2-12,19.2-12z"/>
			<path class="st1" d="M43.2-36c4,0,7.2-3.2,7.2-7.2c0-4-3.2-7.2-7.2-7.2c-4,0-7.2,3.2-7.2,7.2C36-39.2,39.2-36,43.2-36z"/>
			<path class="st1" d="M19.2-36c4,0,7.2-3.2,7.2-7.2c0-4-3.2-7.2-7.2-7.2c-4,0-7.2,3.2-7.2,7.2C12-39.2,15.2-36,19.2-36z"/>
		</g>
		<g>
			<path class="st1" d="M7.2,0c4,0,7.2-3.2,7.2-7.2c0-4-3.2-7.2-7.2-7.2c-4,0-7.2,3.2-7.2,7.2C0-3.2,3.2,0,7.2,0z"/>
			<path class="st1" d="M7.2-24c4,0,7.2-3.2,7.2-7.2c0-4-3.2-7.2-7.2-7.2c-4,0-7.2,3.2-7.2,7.2C0-27.2,3.2-24,7.2-24z"/>
		</g>
		<g>
			<path class="st1" d="M31.2-48c4,0,7.2-3.2,7.2-7.2c0-4-3.2-7.2-7.2-7.2c-4,0-7.2,3.2-7.2,7.2C24-51.2,27.2-48,31.2-48z"/>
			<path class="st1" d="M55.2-48c4,0,7.2-3.2,7.2-7.2c0-4-3.2-7.2-7.2-7.2c-4,0-7.2,3.2-7.2,7.2C48-51.2,51.2-48,55.2-48z"/>
		</g>
		<g>
			<path class="st1" d="M7.2-48c4,0,7.2-3.2,7.2-7.2c0-4-3.2-7.2-7.2-7.2c-4,0-7.2,3.2-7.2,7.2C0-51.2,3.2-48,7.2-48z"/>
		</g>
	</g>
</pattern>
<rect y="0.1" class="st2" width="2380" height="297"/>
<rect y="0.1" class="st3" width="2380" height="134"/>
</svg>
