<?xml version="1.0" encoding="utf-8"?>
<!-- Generator: Adobe Illustrator 22.0.0, SVG Export Plug-In . SVG Version: 6.00 Build 0)  -->
<svg version="1.1" id="Layer_1" xmlns="http://www.w3.org/2000/svg" xmlns:xlink="http://www.w3.org/1999/xlink" x="0px" y="0px"
	 viewBox="0 0 962.4 320.9" style="enable-background:new 0 0 962.4 320.9;" xml:space="preserve">
<style type="text/css">
	.st0{fill:#FFFFFF;}
	.st1{opacity:0.8;}
</style>
<path class="st0" d="M386.5,126.1c1.6,3,3.5,6.6,5.6,11c2.1,4.3,4.3,9,6.6,14.1c2.3,5.1,4.6,10.2,6.8,15.5
	c2.2,5.3,4.4,10.3,6.3,14.9c2-4.7,4.1-9.6,6.3-14.9c2.2-5.3,4.5-10.5,6.8-15.5c2.3-5.1,4.5-9.8,6.6-14.1c2.1-4.3,4-8,5.6-11h19.1
	c0.9,6.2,1.7,13.1,2.5,20.8c0.8,7.7,1.4,15.6,2,23.9c0.6,8.3,1.1,16.6,1.6,24.9c0.5,8.3,0.9,16.2,1.3,23.5h-20.4
	c-0.3-9-0.6-18.9-1.1-29.6c-0.4-10.7-1.1-21.4-2-32.2c-1.6,3.8-3.4,7.9-5.4,12.5c-2,4.6-3.9,9.1-5.9,13.7c-1.9,4.6-3.8,8.9-5.6,13.1
	c-1.8,4.2-3.3,7.7-4.6,10.7h-14.6c-1.3-3-2.8-6.5-4.6-10.7c-1.8-4.2-3.7-8.5-5.6-13.1c-1.9-4.6-3.9-9.1-5.9-13.7
	c-2-4.6-3.8-8.7-5.4-12.5c-0.9,10.8-1.6,21.6-2,32.2c-0.4,10.7-0.8,20.5-1.1,29.6h-20.4c0.4-7.3,0.8-15.2,1.3-23.5
	c0.5-8.3,1-16.6,1.6-24.9c0.6-8.3,1.3-16.3,2-23.9c0.8-7.7,1.6-14.6,2.5-20.8H386.5z M506.4,146.7c5.9,0,10.8,0.7,14.8,2
	c3.9,1.3,7.1,3.3,9.5,5.8c2.4,2.5,4.1,5.6,5,9.1c1,3.6,1.5,7.6,1.5,12v41.7c-2.9,0.6-6.9,1.4-12,2.2c-5.1,0.9-11.3,1.3-18.5,1.3
	c-4.6,0-8.7-0.4-12.4-1.2c-3.7-0.8-6.9-2.1-9.6-4c-2.7-1.8-4.7-4.2-6.2-7.2c-1.4-3-2.1-6.6-2.1-10.9c0-4.1,0.8-7.6,2.5-10.5
	c1.7-2.9,3.9-5.2,6.7-6.9c2.8-1.7,6-2.9,9.5-3.7c3.6-0.8,7.3-1.1,11.2-1.1c2.6,0,4.9,0.1,6.9,0.3c2,0.2,3.6,0.5,4.9,0.9v-1.9
	c0-3.4-1-6.1-3.1-8.2c-2.1-2.1-5.6-3.1-10.7-3.1c-3.4,0-6.8,0.2-10.1,0.7c-3.3,0.5-6.2,1.2-8.6,2.1l-2.6-16.1
	c1.2-0.4,2.6-0.7,4.4-1.1c1.7-0.4,3.6-0.8,5.7-1.1c2.1-0.3,4.2-0.6,6.5-0.8C501.7,146.8,504,146.7,506.4,146.7z M508,205.2
	c2,0,3.9,0,5.6-0.1c1.8-0.1,3.2-0.2,4.3-0.4v-15.2c-0.8-0.2-2-0.4-3.6-0.5c-1.6-0.2-3.1-0.3-4.4-0.3c-1.9,0-3.7,0.1-5.3,0.3
	c-1.7,0.2-3.1,0.7-4.4,1.3c-1.3,0.6-2.2,1.5-3,2.6c-0.7,1.1-1.1,2.4-1.1,4c0,3.1,1.1,5.3,3.2,6.5C501.4,204.6,504.3,205.2,508,205.2
	z M597.9,166.3c-1.8-0.4-3.9-0.9-6.3-1.4c-2.4-0.5-5-0.7-7.8-0.7c-1.3,0-2.8,0.1-4.5,0.3c-1.7,0.2-3.1,0.5-4,0.7v54h-20v-66.9
	c3.6-1.3,7.8-2.4,12.7-3.6c4.9-1.1,10.3-1.7,16.3-1.7c1.1,0,2.4,0.1,3.9,0.2c1.5,0.1,3,0.3,4.6,0.5c1.5,0.2,3,0.5,4.6,0.8
	c1.5,0.3,2.8,0.7,3.9,1.1L597.9,166.3z M636,146.7c5.9,0,10.8,0.7,14.8,2c3.9,1.3,7.1,3.3,9.5,5.8c2.4,2.5,4.1,5.6,5,9.1
	c1,3.6,1.5,7.6,1.5,12v41.7c-2.9,0.6-6.9,1.4-12,2.2c-5.1,0.9-11.3,1.3-18.5,1.3c-4.6,0-8.7-0.4-12.4-1.2c-3.7-0.8-6.9-2.1-9.6-4
	c-2.7-1.8-4.7-4.2-6.2-7.2c-1.4-3-2.1-6.6-2.1-10.9c0-4.1,0.8-7.6,2.5-10.5c1.7-2.9,3.9-5.2,6.7-6.9c2.8-1.7,6-2.9,9.5-3.7
	c3.6-0.8,7.3-1.1,11.2-1.1c2.6,0,4.9,0.1,6.9,0.3c2,0.2,3.6,0.5,4.9,0.9v-1.9c0-3.4-1-6.1-3.1-8.2c-2.1-2.1-5.6-3.1-10.7-3.1
	c-3.4,0-6.8,0.2-10.1,0.7c-3.3,0.5-6.2,1.2-8.6,2.1l-2.6-16.1c1.2-0.4,2.6-0.7,4.4-1.1c1.7-0.4,3.6-0.8,5.7-1.1
	c2.1-0.3,4.2-0.6,6.5-0.8C631.4,146.8,633.7,146.7,636,146.7z M637.7,205.2c2,0,3.9,0,5.6-0.1c1.8-0.1,3.2-0.2,4.3-0.4v-15.2
	c-0.8-0.2-2-0.4-3.6-0.5c-1.6-0.2-3.1-0.3-4.4-0.3c-1.9,0-3.7,0.1-5.3,0.3c-1.7,0.2-3.1,0.7-4.4,1.3c-1.3,0.6-2.2,1.5-3,2.6
	c-0.7,1.1-1.1,2.4-1.1,4c0,3.1,1.1,5.3,3.2,6.5C631.1,204.6,634,205.2,637.7,205.2z M684.3,130.9l20-3.2v20.8h24.1v16.7h-24.1v24.9
	c0,4.2,0.7,7.6,2.2,10.1c1.5,2.5,4.5,3.8,8.9,3.8c2.1,0,4.4-0.2,6.7-0.6c2.3-0.4,4.4-1,6.2-1.7l2.8,15.6c-2.4,1-5.1,1.8-8.1,2.6
	c-3,0.7-6.6,1.1-10.9,1.1c-5.5,0-10-0.7-13.6-2.2c-3.6-1.5-6.4-3.5-8.6-6.2c-2.1-2.6-3.7-5.8-4.5-9.6c-0.9-3.8-1.3-7.9-1.3-12.5
	V130.9z M804.9,216.8c-3.4,1-7.8,1.9-13.2,2.8c-5.4,0.9-11,1.3-16.9,1.3c-6,0-11-0.8-15-2.4c-4-1.6-7.1-3.9-9.5-6.8
	c-2.3-2.9-4-6.4-5-10.4c-1-4-1.5-8.5-1.5-13.3v-39.4h20v37c0,6.4,0.9,11.1,2.6,14c1.7,2.9,4.9,4.3,9.5,4.3c1.4,0,3-0.1,4.6-0.2
	c1.6-0.1,3-0.3,4.3-0.5v-54.6h20V216.8z M844,204.8c3.7,0,6.3-0.4,7.8-1.1c1.5-0.7,2.3-2.1,2.3-4.2c0-1.6-1-3-3-4.2
	c-2-1.2-5-2.6-9-4.1c-3.1-1.2-6-2.4-8.5-3.6c-2.6-1.3-4.7-2.8-6.5-4.5c-1.8-1.7-3.2-3.8-4.2-6.2c-1-2.4-1.5-5.3-1.5-8.7
	c0-6.6,2.5-11.9,7.4-15.7c4.9-3.9,11.7-5.8,20.3-5.8c4.3,0,8.4,0.4,12.4,1.1c3.9,0.8,7.1,1.6,9.4,2.5l-3.5,15.6
	c-2.3-0.8-4.9-1.5-7.6-2.1c-2.7-0.6-5.8-0.9-9.2-0.9c-6.3,0-9.4,1.7-9.4,5.2c0,0.8,0.1,1.5,0.4,2.1c0.3,0.6,0.8,1.2,1.6,1.8
	c0.8,0.6,1.9,1.2,3.3,1.9c1.4,0.7,3.2,1.4,5.3,2.2c4.4,1.6,8,3.2,10.9,4.8c2.9,1.6,5.1,3.3,6.8,5.1c1.7,1.8,2.8,3.9,3.5,6.1
	c0.7,2.2,1,4.8,1,7.8c0,7-2.6,12.2-7.9,15.8c-5.2,3.6-12.7,5.4-22.2,5.4c-6.3,0-11.5-0.5-15.7-1.6c-4.2-1.1-7.1-2-8.7-2.7l3.4-16.3
	c3.4,1.3,6.9,2.4,10.5,3.2C837,204.5,840.5,204.8,844,204.8z"/>
<g class="st1">
	<path class="st0" d="M481.3,185.6c2.8-1.7,6-2.9,9.5-3.7c3.6-0.8,7.3-1.1,11.2-1.1c2.6,0,4.9,0.1,6.9,0.3c2,0.2,3.6,0.5,4.9,0.9
		v-1.9c0-1.6-0.2-3.1-0.7-4.4c0,0-0.1,0-0.1,0c-2-0.2-4.3-0.3-6.9-0.3c-3.9,0-7.6,0.4-11.2,1.1c-3.6,0.8-6.8,2-9.5,3.7
		c-2.8,1.7-5,4-6.7,6.9c-0.2,0.3-0.4,0.7-0.5,1C479.2,187.1,480.2,186.3,481.3,185.6z"/>
	<path class="st0" d="M611,185.6c2.8-1.7,6-2.9,9.5-3.7c3.6-0.8,7.3-1.1,11.2-1.1c2.6,0,4.9,0.1,6.9,0.3c2,0.2,3.6,0.5,4.9,0.9v-1.9
		c0-1.6-0.2-3.1-0.7-4.4c0,0-0.1,0-0.1,0c-2-0.2-4.3-0.3-6.9-0.3c-3.9,0-7.6,0.4-11.2,1.1c-3.6,0.8-6.8,2-9.5,3.7
		c-2.8,1.7-5,4-6.7,6.9c-0.2,0.3-0.4,0.7-0.5,1C608.9,187.1,609.9,186.3,611,185.6z"/>
	<path class="st0" d="M382.4,131.6c1.6,3,3.5,6.6,5.6,11c2.1,4.3,4.3,9,6.6,14.1c2.3,5.1,4.6,10.2,6.8,15.5
		c2.2,5.3,4.4,10.3,6.3,14.9c1-2.4,2.1-4.9,3.2-7.5c-1.7-4.1-3.5-8.3-5.4-12.8c-2.2-5.3-4.5-10.5-6.8-15.5
		c-2.3-5.1-4.5-9.8-6.6-14.1c-2.1-4.3-4-8-5.6-11h-20c-0.3,1.8-0.5,3.6-0.7,5.4H382.4z"/>
	<path class="st0" d="M824.8,157.9c4.9-3.9,11.7-5.8,20.3-5.8c4.3,0,8.4,0.4,12.4,1.1c3.9,0.8,7.1,1.6,9.4,2.5l-2.1,9.3
		c0.9,0.3,1.8,0.5,2.7,0.8l3.5-15.6c-2.3-0.9-5.5-1.7-9.4-2.5c-3.9-0.8-8.1-1.1-12.4-1.1c-8.6,0-15.4,1.9-20.3,5.8
		c-2.4,1.9-4.2,4.1-5.4,6.6C823.8,158.7,824.3,158.3,824.8,157.9z"/>
	<path class="st0" d="M759.9,154v37c0,6.4,0.9,11.1,2.6,14c1.7,2.9,4.9,4.3,9.5,4.3c1.4,0,3-0.1,4.6-0.2c1.6-0.1,3-0.3,4.3-0.5v-5
		c-0.1,0-0.1,0-0.2,0c-1.6,0.1-3.1,0.2-4.6,0.2c-4.7,0-7.8-1.4-9.5-4.3c-1.7-2.9-2.6-7.5-2.6-14v-37h-20v5.4H759.9z"/>
	<polygon class="st0" points="700.2,133.2 700.2,154 724.3,154 724.3,165.2 728.4,165.2 728.4,148.5 704.3,148.5 704.3,127.7 
		684.3,130.9 684.3,135.7 	"/>
	<path class="st0" d="M833.4,203.7c-3.6-0.8-7.1-1.8-10.5-3.2l-1.3,6.5c2.5,0.9,5.1,1.6,7.7,2.1c3.6,0.8,7.1,1.1,10.6,1.1
		c3.7,0,6.3-0.4,7.8-1.1c1.5-0.7,2.3-2.1,2.3-4.2c0-0.2,0-0.5-0.1-0.7c-1.5,0.3-3.5,0.5-5.9,0.5C840.5,204.8,837,204.5,833.4,203.7z
		"/>
	<path class="st0" d="M722.1,203.3c-2.3,0.4-4.5,0.6-6.7,0.6c-4.5,0-7.5-1.3-8.9-3.8c-1.5-2.5-2.2-5.9-2.2-10.1v-24.9h-4.1v30.3
		c0,4.2,0.7,7.6,2.2,10.1c1.5,2.5,4.5,3.8,8.9,3.8c2.1,0,4.4-0.2,6.7-0.6c2.3-0.4,4.4-1,6.2-1.7l2.1,11.8c1.7-0.5,3.3-1.1,4.8-1.7
		l-2.8-15.6C726.5,202.3,724.4,202.9,722.1,203.3z"/>
	<path class="st0" d="M660.3,154.5c-2.4-2.5-5.5-4.4-9.5-5.8c-3.9-1.3-8.9-2-14.8-2c-2.3,0-4.6,0.1-6.9,0.3
		c-2.3,0.2-4.5,0.5-6.5,0.8c-2.1,0.3-4,0.7-5.7,1.1c-1.7,0.4-3.2,0.8-4.4,1.1l0.7,4.2c1.6-0.4,3.4-0.7,5.3-1
		c2.1-0.3,4.2-0.6,6.5-0.8c2.3-0.2,4.6-0.3,6.9-0.3c5.9,0,10.8,0.7,14.8,2c3.9,1.3,7.1,3.3,9.5,5.8c2.4,2.5,4.1,5.6,5,9.1
		c1,3.6,1.5,7.6,1.5,12v37c1.5-0.3,2.9-0.6,4.1-0.8v-41.7c0-4.4-0.5-8.4-1.5-12C664.3,160,662.7,157,660.3,154.5z"/>
	<path class="st0" d="M873,192.1c-0.7-2.2-1.8-4.3-3.5-6.1c-1.7-1.8-3.9-3.5-6.8-5.1c-2.9-1.6-6.5-3.2-10.9-4.8
		c-2.1-0.8-3.9-1.6-5.3-2.2c-1.4-0.7-2.5-1.3-3.3-1.9c-0.8-0.6-1.3-1.2-1.6-1.8c-0.2-0.4-0.3-0.9-0.3-1.3c-2.8,0.8-4.2,2.3-4.2,4.6
		c0,0.8,0.1,1.5,0.4,2.1c0.3,0.6,0.8,1.2,1.6,1.8c0.8,0.6,1.9,1.2,3.3,1.9c1.4,0.7,3.2,1.4,5.3,2.2c4.4,1.6,8,3.2,10.9,4.8
		c2.9,1.6,5.1,3.3,6.8,5.1c1.7,1.8,2.8,3.9,3.5,6.1c0.7,2.2,1,4.8,1,7.8c0,3.3-0.6,6.3-1.8,8.8c3.9-3.5,5.9-8.3,5.9-14.3
		C874,197,873.7,194.4,873,192.1z"/>
	<path class="st0" d="M784.9,154h15.9v63.9c1.5-0.3,2.9-0.7,4.1-1v-68.3h-20V154z"/>
	<path class="st0" d="M530.6,154.5c-2.4-2.5-5.5-4.4-9.5-5.8c-3.9-1.3-8.9-2-14.8-2c-2.3,0-4.6,0.1-6.9,0.3
		c-2.3,0.2-4.5,0.5-6.5,0.8c-2.1,0.3-4,0.7-5.7,1.1c-1.7,0.4-3.2,0.8-4.4,1.1l0.7,4.2c1.6-0.4,3.4-0.7,5.3-1
		c2.1-0.3,4.2-0.6,6.5-0.8c2.3-0.2,4.6-0.3,6.9-0.3c5.9,0,10.8,0.7,14.8,2c3.9,1.3,7.1,3.3,9.5,5.8c2.4,2.5,4.1,5.6,5,9.1
		c1,3.6,1.5,7.6,1.5,12v37c1.5-0.3,2.9-0.6,4.1-0.8v-41.7c0-4.4-0.5-8.4-1.5-12C534.7,160,533,157,530.6,154.5z"/>
	<path class="st0" d="M460.8,170.8c-0.6-8.3-1.3-16.3-2-23.9c-0.8-7.7-1.6-14.6-2.5-20.8h-19.1c-0.9,1.6-1.8,3.4-2.9,5.4h17.9
		c0.9,6.2,1.7,13.1,2.5,20.8c0.8,7.7,1.4,15.6,2,23.9c0.6,8.3,1.1,16.6,1.6,24.9c0.4,6.3,0.7,12.3,1,18.1h4.4
		c-0.4-7.3-0.8-15.2-1.3-23.5C461.9,187.4,461.3,179.1,460.8,170.8z"/>
	<path class="st0" d="M592.8,147.8c-1.5-0.2-3-0.4-4.6-0.5c-1.5-0.1-2.8-0.2-3.9-0.2c-6,0-11.4,0.6-16.3,1.7
		c-4.9,1.1-9.1,2.3-12.7,3.6v4.1c2.6-0.8,5.5-1.5,8.6-2.3c4.9-1.1,10.3-1.7,16.3-1.7c1.1,0,2.4,0.1,3.9,0.2c1.5,0.1,3,0.3,4.6,0.5
		c1.5,0.2,3,0.5,4.6,0.8c1.5,0.3,2.8,0.7,3.9,1.1l-2.1,10.4c1,0.2,2,0.5,2.8,0.7l3.4-16.5c-1.1-0.4-2.4-0.8-3.9-1.1
		C595.8,148.3,594.3,148,592.8,147.8z"/>
</g>
<g>
	<path class="st0" d="M315,146.8c0.1,0.6,0.1,1.1,0.2,1.7C315.1,147.9,315.1,147.3,315,146.8z"/>
	<path class="st0" d="M314.6,143.3c0.1,0.6,0.2,1.2,0.2,1.8C314.7,144.5,314.7,143.9,314.6,143.3z"/>
	<path class="st0" d="M315.3,150.3c0,0.5,0.1,1,0.1,1.5C315.4,151.4,315.4,150.8,315.3,150.3z"/>
	<path class="st0" d="M314.1,139.9c0.1,0.6,0.2,1.3,0.3,2C314.3,141.2,314.2,140.5,314.1,139.9z"/>
	<path class="st0" d="M213.5,272.1c-1.9,0.2-3.8,0.3-5.8,0.4C209.6,272.4,211.6,272.3,213.5,272.1z"/>
	<path class="st0" d="M201.8,272.7c-2.8,0-5.6-0.1-8.3-0.3C196.2,272.6,199,272.7,201.8,272.7z"/>
	<path class="st0" d="M315.5,154.1c0,0.4,0,0.8,0.1,1.3C315.6,154.9,315.6,154.5,315.5,154.1z"/>
	<path class="st0" d="M264.7,63.9C264.7,63.9,264.7,63.9,264.7,63.9c0,0.1,0.1,0.2,0.1,0.3C264.8,64.1,264.7,64,264.7,63.9z"/>
	<path class="st0" d="M266.3,67.4c-0.1-0.2-0.2-0.4-0.3-0.6C266.2,67,266.3,67.2,266.3,67.4z"/>
	<path class="st0" d="M273.5,88.8c1.4,6.3,2.4,12.9,2.7,19.6c2.5,4.5,4.6,9.3,6.1,14.2c2.3,7.9,3.4,15.9,3.5,23.8
		c0,14.7-3.2,29-8.2,42.2c0,0,0,0.1,0,0.1c-0.4,0.9-0.7,1.9-1.1,2.8c0,0.1,0,0.1-0.1,0.2c-0.2,0.5-0.7,0.7-1.2,0.5
		c-0.2-0.1-0.4-0.3-0.5-0.5c-0.1-0.2-0.1-0.3-0.1-0.5l0,0l0,0l0.5-2.6l0.6-3c0.1-0.5,0.2-1,0.3-1.4c0.1-0.4,0.1-0.9,0.2-1.3l0.2-1.3
		l0.2-1.5c0.1-0.4,0.1-0.8,0.2-1.2c0.1-0.5,0.2-1,0.2-1.6l0.2-1.9l0.1-0.8l0.3-2.8c0-0.3,0-0.6,0.1-0.9c0-0.6,0.1-1.3,0.1-1.9
		c0.2-2.8,0.2-5.5,0.2-8.3c0,0,0,0,0,0c0-4.6-0.3-9.1-1-13.6c-0.1-0.7-0.2-1.4-0.3-2.1c-0.5-3.1-1.2-6.2-2.1-9.2
		c0-0.1-0.1-0.2-0.1-0.3c-9.8,51.8-54.6,91.1-108.9,92.5c1,0.5,1.9,0.9,2.9,1.4c6.3,2.8,13.3,4.7,20.4,5.7
		c7.1,1.1,14.5,1.2,21.9,0.8c0.9-0.1,1.9-0.1,2.8-0.2l2.8-0.3l2.8-0.3c0.9-0.1,1.8-0.3,2.8-0.4l2.8-0.4c0.9-0.1,1.9-0.3,2.8-0.5
		l4.7-0.9l0.9-0.2l0,0c0.5-0.1,1,0.2,1,0.7c0.1,0.3-0.1,0.6-0.3,0.8c-0.1,0.1-0.2,0.1-0.3,0.2c-14.1,5.8-29.4,9.5-45.3,9.4
		c-5.8-0.1-11.6-0.7-17.4-1.9c-2.1-0.5-4.3-1-6.4-1.6c-7.8-2.4-15.4-6.2-22.1-11.2c-1-0.7-1.9-1.5-2.8-2.3c-0.7-0.6-1.4-1.2-2.1-1.8
		c-12.4-2.8-23.9-7.6-34.4-14c19.9,33.2,56.2,55.4,97.7,55.4c62.9,0,113.8-51,113.8-113.8c0-6.7-0.6-13.2-1.7-19.5
		c0.2,0.8,0.3,1.6,0.5,2.3c-6-28.9-23-53.8-46.4-70.1C269.9,72.8,272.1,80.7,273.5,88.8C273.5,88.8,273.5,88.8,273.5,88.8z"/>
	<path class="st0" d="M267.6,70.3c-0.1-0.2-0.1-0.3-0.2-0.5C267.5,70,267.5,70.2,267.6,70.3z"/>
	<path class="st0" d="M268.7,73.2c0-0.1-0.1-0.2-0.1-0.3C268.7,73,268.7,73.1,268.7,73.2z"/>
	<path class="st0" d="M269.8,76.1c0,0,0-0.1,0-0.1C269.8,76,269.8,76.1,269.8,76.1z"/>
	<path class="st0" d="M313.5,136.5c0.1,0.7,0.3,1.4,0.4,2.1C313.7,137.9,313.6,137.2,313.5,136.5z"/>
	<path class="st0" d="M248.7,262.6c-5,2.3-10.3,4.2-15.7,5.7C238.4,266.8,243.6,264.9,248.7,262.6z"/>
	<path class="st0" d="M315.1,170.5c-0.2,1.9-0.4,3.8-0.7,5.7C314.6,174.3,314.9,172.4,315.1,170.5z"/>
	<path class="st0" d="M233,268.3c-1.8,0.5-3.6,1-5.5,1.4C229.4,269.3,231.2,268.8,233,268.3z"/>
	<path class="st0" d="M315.5,164.7c-0.1,1.9-0.2,3.9-0.4,5.8C315.3,168.6,315.4,166.6,315.5,164.7z"/>
	<path class="st0" d="M314.3,176.2c-0.3,1.9-0.6,3.8-1,5.6C313.7,179.9,314.1,178,314.3,176.2z"/>
	<path class="st0" d="M311.3,190c-1.5,5.4-3.5,10.6-5.7,15.7C307.9,200.6,309.8,195.4,311.3,190z"/>
	<path class="st0" d="M114.1,231.4c17.6,21.2,42.7,35.9,71.2,40.1C156.8,267.3,131.7,252.6,114.1,231.4z"/>
	<path class="st0" d="M248.7,262.6c25.2-11.4,45.5-31.7,56.9-56.9C294.2,230.9,273.9,251.2,248.7,262.6z"/>
	<path class="st0" d="M99.7,209.1L99.7,209.1c0.6,0.4,1.3,0.8,1.9,1.2C100.9,209.9,100.3,209.5,99.7,209.1z"/>
	<path class="st0" d="M224.8,270.3c-1.9,0.4-3.7,0.7-5.6,1C221,271.1,222.9,270.7,224.8,270.3z"/>
	<path class="st0" d="M312.7,184.5c-0.4,1.8-0.9,3.7-1.4,5.5C311.8,188.2,312.3,186.4,312.7,184.5z"/>
	<path class="st0" d="M219.2,271.3c-1.9,0.3-3.8,0.5-5.7,0.7C215.4,271.9,217.3,271.6,219.2,271.3z"/>
	<path class="st0" d="M266.9,65.4c-0.7-0.5-1.4-1-2.2-1.5l0,0C265.4,64.4,266.1,64.9,266.9,65.4C266.9,65.4,266.9,65.4,266.9,65.4z"
		/>
	<path class="st0" d="M266.1,66.9c0.1,0.2,0.2,0.4,0.3,0.6c0.4,0.8,0.7,1.6,1.1,2.4c0.1,0.2,0.1,0.3,0.2,0.5c0.4,0.9,0.7,1.7,1,2.6
		c0,0.1,0.1,0.2,0.1,0.3c0.4,0.9,0.7,1.9,1,2.8c0,0,0,0.1,0,0.1c1.5,4.1,2.7,8.3,3.7,12.6c0,0,0,0,0,0c-1.4-8.1-3.6-15.9-6.7-23.4
		c-0.7-0.5-1.4-1-2.2-1.5c0,0.1,0.1,0.2,0.1,0.3C265.3,65.1,265.7,66,266.1,66.9z"/>
	<path class="st0" d="M314.8,145.1c0.1,0.5,0.1,1.1,0.2,1.6C314.9,146.2,314.9,145.7,314.8,145.1z"/>
	<path class="st0" d="M313.3,135.6c0.1,0.3,0.1,0.6,0.2,1C313.4,136.2,313.3,135.9,313.3,135.6z"/>
	<path class="st0" d="M314.4,141.8c0.1,0.5,0.1,1,0.2,1.5C314.5,142.8,314.4,142.3,314.4,141.8z"/>
	<path class="st0" d="M313.8,138.6c0.1,0.4,0.2,0.8,0.2,1.3C314,139.4,313.9,139,313.8,138.6z"/>
	<path class="st0" d="M315.4,151.9c0,0.7,0.1,1.5,0.1,2.2C315.5,153.3,315.5,152.6,315.4,151.9z"/>
	<path class="st0" d="M315.6,155.3c0,1.2,0.1,2.3,0.1,3.5C315.7,157.7,315.6,156.5,315.6,155.3z"/>
	<path class="st0" d="M99.7,209.1c4,8,8.8,15.5,14.5,22.3C108.5,224.6,103.6,217.1,99.7,209.1L99.7,209.1z"/>
	<path class="st0" d="M315.2,148.5c0.1,0.6,0.1,1.2,0.1,1.9C315.3,149.7,315.2,149.1,315.2,148.5z"/>
	<path class="st0" d="M315.6,155.3c0-0.4,0-0.8-0.1-1.3c0-0.7-0.1-1.5-0.1-2.2c0-0.5-0.1-1-0.1-1.5c0-0.6-0.1-1.2-0.1-1.9
		c-0.1-0.6-0.1-1.1-0.2-1.7c-0.1-0.5-0.1-1.1-0.2-1.6c-0.1-0.6-0.2-1.2-0.2-1.8c-0.1-0.5-0.1-1-0.2-1.5c-0.1-0.7-0.2-1.3-0.3-2
		c-0.1-0.4-0.1-0.8-0.2-1.3c-0.1-0.7-0.3-1.4-0.4-2.1c-0.1-0.3-0.1-0.6-0.2-1c-0.2-0.8-0.3-1.6-0.5-2.3c1.1,6.3,1.7,12.9,1.7,19.5
		c0,62.9-51,113.8-113.8,113.8c-41.5,0-77.8-22.2-97.7-55.4c-0.5-0.3-0.9-0.6-1.4-0.9c-0.6-0.4-1.3-0.8-1.9-1.2
		c4,8,8.8,15.5,14.5,22.3c17.6,21.2,42.7,35.9,71.2,40.1c2.7,0.4,5.4,0.7,8.2,0.9c2.8,0.2,5.5,0.3,8.3,0.3c2,0,3.9,0,5.9-0.1
		c1.9-0.1,3.9-0.2,5.8-0.4c1.9-0.2,3.8-0.4,5.7-0.7c1.9-0.3,3.8-0.6,5.6-1c0.9-0.2,1.8-0.4,2.8-0.6c1.8-0.4,3.7-0.9,5.5-1.4
		c5.4-1.5,10.6-3.5,15.7-5.7c25.2-11.4,45.5-31.7,56.9-56.9c2.3-5,4.2-10.3,5.7-15.7c0.5-1.8,1-3.6,1.4-5.5c0.2-0.9,0.4-1.8,0.6-2.8
		c0.4-1.9,0.7-3.7,1-5.6c0.3-1.9,0.5-3.8,0.7-5.7c0.2-1.9,0.3-3.8,0.4-5.8c0.1-1.9,0.1-3.9,0.1-5.9
		C315.7,157.7,315.6,156.5,315.6,155.3z"/>
	<path class="st0" d="M102.9,211.2C102.9,211.2,102.9,211.2,102.9,211.2c10.5,6.4,22.1,11.3,34.4,14c-4.8-4.2-9.1-9-12.6-14.4
		l-1.7-2.7c-0.3-0.6-0.7-1.2-1-1.9c-0.2-0.3-0.3-0.6-0.5-1c-0.3-0.5-0.5-1-0.7-1.4c-0.7-1.5-1.3-2.9-1.8-4.4l-0.5-1.3l-0.1-0.2
		c-0.1-0.2-0.1-0.3-0.2-0.5c-0.1-0.3-0.2-0.7-0.3-1c-0.2-0.7-0.4-1.4-0.6-2.1c-0.1-0.3-0.2-0.7-0.3-1c-0.4-1.6-0.7-3.3-1-5
		c-0.1-0.4-0.1-0.8-0.2-1.2c-0.7-5.1-0.9-10.3-0.5-15.3c0-0.3,0-0.5,0.1-0.8c0.1-1.2,0.2-2.4,0.4-3.6c0.2-1.7,0.5-3.3,0.8-4.9
		c1.6-7.9,4.3-15.5,8.5-22.4c0.2-0.3,0.6-0.5,0.9-0.4c0.1,0,0.2,0.1,0.4,0.1c0,0,0,0,0,0c0.1,0.1,0.2,0.2,0.3,0.3l0,0c0,0,0,0,0,0
		c0.1,0.1,0.1,0.2,0.1,0.4l0,0c0.9,7.9,1.4,15.3,2.4,22.5c1,7.2,2.3,14,4.2,20.5c1.9,6.5,4.1,12.6,6.8,18.6
		c2.7,5.9,6.3,11.7,11.3,16.2c4.1,3.9,8.9,7.1,14.1,9.7c54.3-1.4,99.1-40.8,108.9-92.5c-0.9-3-2-6-3.2-8.8c-0.8-1.8-1.6-3.5-2.5-5.1
		c-2.4-4.4-5.2-8.4-8.6-11.9c-1.1-1.2-2.4-2.4-3.6-3.5c-0.6-0.5-1.3-1.1-1.9-1.6c-3.3-2.5-6.9-4.6-10.6-6.3c-4-1.8-8-3.4-12.2-4.8
		c-2.1-0.7-4.2-1.4-6.4-2c-2.3-0.7-4.7-1.3-7.1-1.8c-4.3-1-8.8-1.7-13.4-2.4c-3.4-0.5-6.8-0.8-10.3-1.2c-3.9-0.4-8-0.8-12.1-1.2l0,0
		c-0.3,0-0.5-0.2-0.7-0.4c-0.1-0.2-0.2-0.4-0.2-0.7c0-0.2,0.1-0.4,0.3-0.5c0.1-0.1,0.1-0.1,0.2-0.2c0,0,0,0,0.1,0
		c0.6-0.4,1.3-0.8,2-1.1c0.5-0.3,1.1-0.6,1.7-0.9l0,0l0,0c5.9-3,12.2-5.1,18.7-6.4c7.9-1.5,16.3-1.9,24.6-0.7
		c2.1,0.4,4.2,0.7,6.2,1.2c1,0.3,2,0.6,3.1,0.9c0.5,0.1,1,0.3,1.5,0.5l1.5,0.6c2,0.8,4,1.5,5.9,2.6c1,0.5,1.9,1,2.8,1.5l2.7,1.7
		c7.2,4.7,13.4,10.8,18.4,17.5c1.9,2.5,3.6,5.2,5.2,7.9c-0.3-6.7-1.3-13.2-2.7-19.6c-1-4.3-2.2-8.5-3.7-12.6c0,0,0-0.1,0-0.1
		c-0.3-0.9-0.7-1.9-1-2.8c0-0.1-0.1-0.2-0.1-0.3c-0.3-0.9-0.7-1.7-1-2.6c-0.1-0.2-0.1-0.3-0.2-0.5c-0.3-0.8-0.7-1.6-1.1-2.4
		c-0.1-0.2-0.2-0.4-0.3-0.6c-0.4-0.9-0.8-1.8-1.3-2.6c0-0.1-0.1-0.2-0.1-0.3c-18-12-39.6-18.9-62.9-18.9C139,45,88,96,88,158.8
		c0,18,4.2,35.1,11.7,50.3c0.6,0.4,1.3,0.8,1.9,1.2C102,210.6,102.5,210.9,102.9,211.2z M195.5,121.4c0,0,0-0.1,0.1-0.1
		c0.1-0.1,0.1-0.2,0.2-0.3c0,0,0,0,0,0l0,0h0c0.5-0.5,1.1-1,1.6-1.5c0,0,0.1-0.1,0.1-0.1c3.1-2.6,6.6-4.5,10.4-5.9
		c4.5-1.6,9.4-2.3,14.5-2c5,0.3,10.2,2,14.5,5.1c4.4,3,8,7,10.9,11.2c2.9,4.2,4.9,8.9,6,13.6c1.1,4.7,1.3,9.5,0.9,14
		c-0.4,4.6-1.3,8.9-2.6,13.1c-0.9,2.7-1.9,5.4-3,7.9l0,0c0,0,0,0,0,0c-0.3,0.6-0.6,1.2-0.8,1.8c-0.4,0.7-0.7,1.5-1.1,2.2
		c0,0,0,0,0,0c-0.2,0.4-0.8,0.6-1.2,0.4c-0.3-0.1-0.4-0.4-0.5-0.7c0-0.1,0-0.1,0-0.2l0,0c0-0.4,0.1-0.7,0.1-1.1
		c0.2-1.7,0.5-3.4,0.6-5.1l0.1-1.3l0-0.3l0.1-1.5c0-0.4,0-0.7,0.1-1.1c0-0.7,0.1-1.3,0.1-2c0-1,0-2,0-3c0,0,0,0,0,0
		c0-3-0.3-6-0.8-8.8c-0.2-1.4-0.6-2.7-0.9-4c-1.6-6-4.4-11.2-8.2-14.9c-1.3-1.3-2.7-2.2-4.3-3c-1.3-0.7-2.7-1.2-4-1.6
		c-0.5-0.2-1.1-0.3-1.6-0.5c-2.4-0.8-4.9-1.6-7.5-2.5c-0.6-0.2-1.1-0.4-1.7-0.5c-0.8-0.3-1.6-0.5-2.5-0.8c-2-0.6-4.1-1.2-6.4-1.7
		c-2.6-0.7-5.4-1.3-8.3-2.1c-1.4-0.4-2.8-0.8-4.3-1.2l0,0l0,0c-0.1,0-0.2-0.1-0.3-0.2c-0.2-0.2-0.4-0.4-0.4-0.7
		C195.4,121.7,195.5,121.5,195.5,121.4z M178.6,194.9c4.5,4.7,11.3,7.8,18.9,9.1c3.8,0.7,7.8,0.9,11.9,0.8c1,0,2-0.1,3.1-0.1
		l1.5-0.1l1.5-0.2c2.1-0.2,4.1-0.5,6.2-0.8l0,0c0,0,0.1,0,0.1,0h0c0,0,0,0,0,0c0.2,0,0.4,0.1,0.6,0.2c0,0,0,0,0.1,0.1
		c0.1,0.1,0.1,0.1,0.1,0.2c0.1,0.1,0.1,0.2,0.1,0.3c0,0,0,0,0,0l0,0l0,0c0.1,0.4-0.2,0.7-0.5,0.9c-0.9,0.5-1.9,1-2.9,1.4
		c-1.9,0.9-3.8,1.7-5.7,2.4c-1.1,0.4-2.2,0.8-3.3,1.2c-1.5,0.5-3,0.9-4.5,1.2c-2.8,0.7-5.7,1.1-8.6,1.4c-4.5,0.3-9.3,0.1-14-0.9
		c-0.7-0.2-1.3-0.3-2-0.5c-2.4-0.7-4.7-1.6-7-2.8c-1.6-0.8-3.1-1.7-4.6-2.8c-2.1-1.5-4.1-3.1-6-4.9c-1.9-1.8-3.6-3.8-5.2-6
		c-0.7-0.9-1.2-1.9-1.8-3c-0.4-0.7-0.8-1.5-1.1-2.2c-1.3-3-2-6.2-2.2-9.3c0-0.6-0.1-1.3-0.1-1.9c0-3.9,0.5-7.7,1.6-11.2
		c0.1-0.4,0.3-0.9,0.4-1.3c0.3-0.9,0.7-1.8,1.1-2.7c1.3-2.8,2.9-5.5,4.9-7.9c0.5-0.5,0.9-1.1,1.5-1.6l0,0c0,0,0,0,0,0
		c0.1-0.1,0.2-0.2,0.4-0.2c0,0,0,0,0,0c0.1,0,0.3-0.1,0.4-0.1l0,0l0,0c0.3,0,0.5,0.1,0.7,0.3c0.1,0.1,0.2,0.3,0.2,0.4l0,0
		c1.5,4.6,2.4,8.7,3.4,12.6c1,3.8,2,7.3,3,10.5c1.1,3.2,2,6.1,3,9.1C174.9,189.6,176.3,192.6,178.6,194.9z M148.9,107.2
		c0.1-0.1,0.1-0.1,0.2-0.2c9.5-9.5,19.5-14.9,22.2-12.2c2.8,2.8-2.7,12.8-12.2,22.3c0,0,0,0-0.1,0.1c-7.4,7.4-15,12.3-19.4,13
		c-1.3,0.2-2.3,0-3-0.6c-1.2-1.2-0.9-3.6,0.6-6.7C139.1,118.5,143.3,112.8,148.9,107.2z"/>
	<path class="st0" d="M273.5,88.8c-1-4.3-2.2-8.5-3.7-12.6C271.3,80.2,272.5,84.5,273.5,88.8z"/>
	<path class="st0" d="M269.8,76c-0.3-0.9-0.7-1.9-1-2.8C269.1,74.1,269.5,75.1,269.8,76z"/>
	<path class="st0" d="M267.4,69.8c-0.3-0.8-0.7-1.6-1.1-2.4C266.7,68.2,267.1,69,267.4,69.8z"/>
	<path class="st0" d="M268.6,72.9c-0.3-0.9-0.7-1.7-1-2.6C268,71.2,268.3,72,268.6,72.9z"/>
	<path class="st0" d="M266.1,66.9c-0.4-0.9-0.8-1.8-1.3-2.6C265.3,65.1,265.7,66,266.1,66.9z"/>
	<path class="st0" d="M101.6,210.3c0.5,0.3,0.9,0.6,1.4,0.9c0,0,0,0,0,0C102.5,210.9,102,210.6,101.6,210.3z"/>
	<path class="st0" d="M188.2,244c-5.8-0.1-11.6-0.7-17.4-1.9C176.6,243.3,182.4,243.9,188.2,244c15.9,0,31.2-3.7,45.3-9.4
		c0.1,0,0.2-0.1,0.3-0.2c-0.1,0.1-0.2,0.1-0.3,0.2C219.4,240.3,204.1,244,188.2,244z"/>
	<path class="st0" d="M137.3,225.2L137.3,225.2c0.7,0.6,1.4,1.2,2.1,1.8C138.7,226.4,138,225.8,137.3,225.2z"/>
	<path class="st0" d="M276.6,145c-0.5-3.1-1.2-6.2-2.1-9.2C275.3,138.8,276,141.8,276.6,145z"/>
	<path class="st0" d="M276,184.2c-0.1,0.5-0.2,1-0.3,1.4l-0.6,3l0.6-3C275.8,185.1,275.9,184.6,276,184.2z"/>
	<path class="st0" d="M277.5,188.7c-0.4,0.9-0.7,1.9-1.1,2.8C276.8,190.6,277.2,189.6,277.5,188.7z"/>
	<path class="st0" d="M276.8,178.8c-0.1,0.4-0.1,0.8-0.2,1.2l-0.2,1.5l0.2-1.5C276.6,179.6,276.7,179.2,276.8,178.8z"/>
	<path class="st0" d="M277.5,171.7c0-0.3,0-0.6,0.1-0.9C277.6,171.1,277.6,171.4,277.5,171.7l-0.3,2.8l-0.1,0.8l0.1-0.8L277.5,171.7
		z"/>
	<path class="st0" d="M274.7,191.2L274.7,191.2L274.7,191.2c0,0.2,0,0.4,0.1,0.5C274.7,191.5,274.6,191.3,274.7,191.2z"/>
	<path class="st0" d="M115.3,171.7c0-0.3,0-0.5,0.1-0.8C115.3,171.2,115.3,171.5,115.3,171.7z"/>
	<path class="st0" d="M246.4,172.5l-0.1,1.3c-0.1,1.7-0.4,3.4-0.6,5.1c0.2-1.7,0.5-3.4,0.6-5.1L246.4,172.5z"/>
	<path class="st0" d="M245.9,180.9c-0.3-0.1-0.4-0.4-0.5-0.7C245.5,180.5,245.7,180.7,245.9,180.9c0.4,0.2,1,0.1,1.2-0.4
		c0,0,0,0,0,0c0,0,0,0,0,0C246.9,180.9,246.4,181.1,245.9,180.9z"/>
	<path class="st0" d="M221.9,203.7c0.2,0,0.4,0.1,0.6,0.2C222.3,203.7,222.1,203.7,221.9,203.7z"/>
	<path class="st0" d="M126.3,139.8c0.1,0.1,0.2,0.2,0.3,0.3C126.5,140,126.4,139.9,126.3,139.8z"/>
	<path class="st0" d="M183.9,82c0.5-0.3,1.1-0.6,1.7-0.9C185,81.4,184.5,81.7,183.9,82z"/>
	<path class="st0" d="M246.7,164.6c0,1,0,2,0,3c0,0.7,0,1.3-0.1,2c0-0.7,0.1-1.3,0.1-2C246.7,166.6,246.7,165.6,246.7,164.6z"/>
	<path class="st0" d="M182,83.2C182,83.2,181.9,83.2,182,83.2c-0.1,0.1-0.2,0.1-0.2,0.2C181.8,83.3,181.8,83.2,182,83.2
		C181.9,83.2,182,83.2,182,83.2z"/>
	<path class="st0" d="M182.3,84.9c-0.3,0-0.5-0.2-0.7-0.4C181.8,84.8,182,84.9,182.3,84.9L182.3,84.9c4.2,0.5,8.2,0.8,12.2,1.2
		C190.5,85.8,186.5,85.4,182.3,84.9L182.3,84.9z"/>
	<path class="st0" d="M218.2,89.7c2.4,0.5,4.7,1.1,7.1,1.8c2.2,0.6,4.3,1.3,6.4,2c-2.1-0.7-4.2-1.4-6.4-2
		C223,90.8,220.6,90.2,218.2,89.7z"/>
	<path class="st0" d="M226.8,131.6c0.5,0.2,1.1,0.3,1.6,0.5c1.4,0.4,2.7,1,4,1.6c-1.3-0.7-2.7-1.2-4-1.6
		C227.9,132,227.3,131.8,226.8,131.6z"/>
	<path class="st0" d="M245.8,155.7c-0.2-1.4-0.6-2.7-0.9-4C245.3,153,245.6,154.4,245.8,155.7c0.5,2.9,0.8,5.8,0.8,8.8
		C246.6,161.6,246.4,158.6,245.8,155.7z"/>
	<path class="st0" d="M163.6,201.1c1.9,1.8,3.9,3.5,6,4.9c1.5,1,3,1.9,4.6,2.8c-1.6-0.8-3.1-1.7-4.6-2.8
		C167.5,204.5,165.5,202.9,163.6,201.1z"/>
	<path class="st0" d="M222.5,203.9c0.1,0.1,0.1,0.1,0.1,0.2C222.6,204,222.6,204,222.5,203.9z"/>
	<path class="st0" d="M183.2,212c-0.7-0.2-1.3-0.3-2-0.5C181.9,211.7,182.5,211.9,183.2,212c4.7,1.1,9.5,1.3,14,0.9
		c2.9-0.2,5.8-0.7,8.6-1.4c-2.8,0.7-5.7,1.1-8.6,1.4C192.7,213.3,188,213.1,183.2,212z"/>
	<path class="st0" d="M163.2,153.7c0.1,0,0.3-0.1,0.4-0.1C163.4,153.6,163.3,153.7,163.2,153.7z"/>
	<path class="st0" d="M256.5,106.1c1.3,1.1,2.5,2.2,3.6,3.5c3.3,3.5,6.2,7.6,8.6,11.9c-2.4-4.4-5.2-8.4-8.6-11.9
		C258.9,108.3,257.7,107.2,256.5,106.1z"/>
	<path class="st0" d="M136.5,129.6c0.6,0.6,1.7,0.8,3,0.6C138.2,130.5,137.2,130.3,136.5,129.6c-1.2-1.2-0.9-3.6,0.6-6.7
		C135.7,126,135.4,128.5,136.5,129.6z"/>
	<path class="st0" d="M156.6,192.1c-0.4-0.7-0.8-1.5-1.1-2.2C155.9,190.6,156.2,191.4,156.6,192.1z"/>
	<path class="st0" d="M219.4,206.8c-1.9,0.9-3.8,1.7-5.7,2.4C215.7,208.5,217.6,207.7,219.4,206.8z"/>
	<path class="st0" d="M162.8,153.9C162.8,153.9,162.8,153.9,162.8,153.9c0.1-0.1,0.2-0.2,0.4-0.2C163,153.8,162.9,153.8,162.8,153.9
		z"/>
	<polygon class="st0" points="222.8,204.4 222.8,204.4 222.8,204.4 	"/>
	<path class="st0" d="M156.4,163.4c1.3-2.8,2.9-5.5,4.9-7.9C159.3,157.9,157.7,160.6,156.4,163.4z"/>
	<path class="st0" d="M153.3,178.6c0-3.9,0.5-7.7,1.6-11.2C153.8,171,153.2,174.7,153.3,178.6z"/>
	<path class="st0" d="M249.1,176.5c-0.3,0.6-0.6,1.2-0.8,1.8C248.6,177.7,248.8,177.1,249.1,176.5z"/>
	<path class="st0" d="M124.7,210.8l-1.7-2.7c-0.3-0.6-0.7-1.2-1-1.9c0.3,0.6,0.7,1.2,1,1.9L124.7,210.8c3.6,5.4,7.9,10.2,12.6,14.4
		l0,0C132.6,221,128.3,216.2,124.7,210.8z"/>
	<path class="st0" d="M118.2,197.4c0.1,0.2,0.1,0.3,0.2,0.5l0.1,0.2l-0.1-0.2C118.3,197.7,118.2,197.5,118.2,197.4z"/>
	<path class="st0" d="M116,188.3c0.3,1.7,0.6,3.3,1,5c0.1,0.3,0.2,0.7,0.3,1c-0.1-0.3-0.2-0.7-0.3-1
		C116.6,191.6,116.3,190,116,188.3z"/>
	<path class="st0" d="M195.7,121c-0.1,0.1-0.1,0.2-0.2,0.3C195.6,121.2,195.7,121.1,195.7,121C195.7,121,195.7,121,195.7,121z"/>
	<path class="st0" d="M195.7,121c0.5-0.5,1-1,1.6-1.5C196.8,120,196.3,120.5,195.7,121z"/>
	<path class="st0" d="M196.2,122.7L196.2,122.7c1.5,0.5,2.9,0.9,4.3,1.2C199.1,123.6,197.7,123.2,196.2,122.7L196.2,122.7z"/>
	<path class="st0" d="M217.6,128.6c-0.8-0.3-1.6-0.5-2.5-0.8C216,128.1,216.8,128.3,217.6,128.6z"/>
	<path class="st0" d="M195.5,121.8c0,0.3,0.2,0.5,0.4,0.7C195.6,122.4,195.5,122.1,195.5,121.8z"/>
	<path class="st0" d="M125,140.1c0.2-0.3,0.6-0.5,0.9-0.4C125.6,139.6,125.2,139.8,125,140.1c-4.2,6.9-6.9,14.4-8.5,22.4
		c-0.3,1.6-0.6,3.3-0.8,4.9c0.2-1.7,0.5-3.3,0.8-4.9C118.1,154.6,120.8,147,125,140.1z"/>
	<path class="st0" d="M181.2,211.5c-2.4-0.7-4.7-1.6-7-2.8C176.5,209.9,178.8,210.8,181.2,211.5z"/>
	<path class="st0" d="M163.2,153.7C163.2,153.7,163.2,153.7,163.2,153.7C163.2,153.7,163.2,153.7,163.2,153.7z"/>
	<path class="st0" d="M162.8,153.9c-0.5,0.5-1,1-1.5,1.6C161.8,155,162.3,154.4,162.8,153.9L162.8,153.9z"/>
	<path class="st0" d="M222.5,203.9C222.5,203.9,222.5,203.9,222.5,203.9C222.5,203.9,222.5,203.9,222.5,203.9z"/>
	<path class="st0" d="M222.7,204.1c0.1,0.1,0.1,0.2,0.1,0.3C222.8,204.3,222.7,204.2,222.7,204.1z"/>
	<path class="st0" d="M222.3,205.3c-0.9,0.5-1.9,1-2.9,1.4C220.4,206.3,221.4,205.8,222.3,205.3c0.3-0.2,0.5-0.5,0.5-0.9l0,0
		C222.8,204.8,222.6,205.2,222.3,205.3z"/>
	<path class="st0" d="M205.8,211.6c1.5-0.4,3-0.8,4.5-1.2c1.1-0.4,2.2-0.7,3.3-1.2c-1.1,0.4-2.2,0.8-3.3,1.2
		C208.9,210.8,207.4,211.2,205.8,211.6z"/>
	<path class="st0" d="M156.4,163.4c-0.4,0.9-0.7,1.8-1.1,2.7c-0.2,0.4-0.3,0.9-0.4,1.3c0.1-0.4,0.3-0.9,0.4-1.3
		C155.7,165.2,156,164.3,156.4,163.4z"/>
	<path class="st0" d="M153.3,178.6c0,0.6,0,1.3,0.1,1.9c0.2,3.1,0.9,6.3,2.2,9.3c-1.3-3-2-6.2-2.2-9.3
		C153.3,179.9,153.3,179.3,153.3,178.6z"/>
	<path class="st0" d="M156.6,192.1c0.5,1,1.1,2,1.8,3c1.5,2.2,3.3,4.2,5.2,6c-1.9-1.8-3.6-3.8-5.2-6
		C157.8,194.1,157.2,193.1,156.6,192.1z"/>
	<path class="st0" d="M149,107.1c-0.1,0.1-0.1,0.1-0.2,0.2c-5.6,5.6-9.8,11.3-11.8,15.7c2-4.4,6.2-10.1,11.8-15.7
		C148.9,107.2,149,107.1,149,107.1z"/>
	<path class="st0" d="M139.5,130.3c4.4-0.6,12-5.6,19.4-13c0,0,0,0,0.1-0.1c0,0,0,0-0.1,0.1C151.6,124.7,143.9,129.7,139.5,130.3z"
		/>
	<path class="st0" d="M200.4,124c3,0.8,5.7,1.4,8.3,2.1c2.2,0.6,4.3,1.1,6.4,1.7c-2-0.6-4.1-1.2-6.4-1.7
		C206.2,125.4,203.4,124.8,200.4,124z"/>
	<path class="st0" d="M217.6,128.6c0.6,0.2,1.1,0.4,1.7,0.5c2.6,0.9,5.1,1.7,7.5,2.5c-2.4-0.8-4.9-1.6-7.5-2.5
		C218.8,129,218.2,128.8,217.6,128.6z"/>
	<polygon class="st0" points="249.1,176.4 249.1,176.4 249.1,176.5 	"/>
	<path class="st0" d="M232.4,133.8c1.5,0.8,3,1.8,4.3,3c3.8,3.7,6.6,9,8.2,14.9c-1.6-6-4.4-11.2-8.2-14.9
		C235.5,135.5,234,134.6,232.4,133.8z"/>
	<path class="st0" d="M248.3,178.3c-0.4,0.7-0.7,1.5-1.1,2.2C247.5,179.8,247.9,179,248.3,178.3z"/>
	<path class="st0" d="M197.3,119.5c0,0,0.1-0.1,0.1-0.1C197.4,119.4,197.4,119.5,197.3,119.5z"/>
	<path class="st0" d="M245.5,179.9c0-0.4,0.1-0.7,0.1-1.1C245.6,179.2,245.5,179.6,245.5,179.9L245.5,179.9c0,0.1,0,0.2,0,0.2
		C245.5,180.1,245.5,180,245.5,179.9L245.5,179.9z"/>
	<path class="st0" d="M246.5,170.7c0-0.4,0-0.7,0.1-1.1C246.6,169.9,246.5,170.3,246.5,170.7l-0.1,1.5l0,0.3l0-0.3L246.5,170.7z"/>
	<path class="st0" d="M195.9,122.6c0.1,0.1,0.2,0.1,0.3,0.2l0,0l0,0C196.1,122.7,196,122.6,195.9,122.6z"/>
	<path class="st0" d="M195.5,121.4c0,0,0-0.1,0.1-0.1C195.5,121.3,195.5,121.4,195.5,121.4c0,0.1-0.1,0.3,0,0.4
		C195.4,121.7,195.5,121.5,195.5,121.4z"/>
	<path class="st0" d="M277.9,160.7c0,2.7-0.1,5.5-0.2,8.3c0,0.6-0.1,1.2-0.1,1.9c0-0.6,0.1-1.3,0.1-1.9
		C277.9,166.2,277.9,163.4,277.9,160.7z"/>
	<path class="st0" d="M277.2,175.3l-0.2,1.9c-0.1,0.5-0.1,1.1-0.2,1.6c0.1-0.5,0.2-1,0.2-1.6L277.2,175.3z"/>
	<path class="st0" d="M275.2,192.2c-0.2-0.1-0.4-0.3-0.5-0.5C274.8,191.9,275,192.1,275.2,192.2c0.5,0.2,1,0,1.2-0.5
		c0-0.1,0-0.1,0.1-0.2c0,0.1,0,0.1-0.1,0.2C276.2,192.1,275.7,192.4,275.2,192.2z"/>
	<path class="st0" d="M276.4,181.5l-0.2,1.3c-0.1,0.4-0.1,0.9-0.2,1.3c0.1-0.4,0.1-0.9,0.2-1.3L276.4,181.5z"/>
	<path class="st0" d="M277.6,188.6c0,0,0,0.1,0,0.1C277.6,188.7,277.6,188.6,277.6,188.6z"/>
	<path class="st0" d="M274.4,135.5L274.4,135.5c0,0.1,0.1,0.2,0.1,0.3C274.4,135.7,274.4,135.6,274.4,135.5z"/>
	<polygon class="st0" points="275.2,188.6 274.7,191.1 274.7,191.2 274.7,191.1 	"/>
	<path class="st0" d="M276.9,147c-0.1-0.7-0.2-1.4-0.3-2.1C276.7,145.7,276.8,146.4,276.9,147c0.7,4.5,1,9,1,13.6
		C277.9,156.1,277.6,151.5,276.9,147z"/>
	<path class="st0" d="M194.5,86.1c3.5,0.3,6.9,0.7,10.3,1.2c4.6,0.6,9.1,1.4,13.4,2.4c-4.3-1-8.8-1.7-13.4-2.4
		C201.4,86.9,198,86.5,194.5,86.1z"/>
	<path class="st0" d="M181.7,83.4c-0.1,0.1-0.2,0.3-0.3,0.5c0,0.2,0,0.5,0.2,0.7c-0.1-0.2-0.2-0.4-0.2-0.7
		C181.5,83.7,181.6,83.5,181.7,83.4z"/>
	<path class="st0" d="M182,83.2c0.6-0.4,1.3-0.8,2-1.1C183.3,82.4,182.6,82.8,182,83.2z"/>
	<path class="st0" d="M231.7,93.5c4.2,1.4,8.2,3,12.2,4.8c3.7,1.7,7.3,3.8,10.6,6.3c-3.3-2.5-6.9-4.6-10.6-6.3
		C239.9,96.5,235.8,94.9,231.7,93.5z"/>
	<path class="st0" d="M271.1,126.6c-0.8-1.8-1.6-3.5-2.5-5.1C269.5,123.2,270.4,124.9,271.1,126.6c1.3,2.8,2.3,5.8,3.2,8.8l0,0
		C273.5,132.4,272.4,129.5,271.1,126.6z"/>
	<path class="st0" d="M233,232.8c0.5-0.1,1,0.2,1,0.7c0.1,0.3-0.1,0.6-0.3,0.8c0.2-0.2,0.3-0.5,0.3-0.8
		C233.9,233.1,233.5,232.8,233,232.8L233,232.8l-0.9,0.2L233,232.8L233,232.8z"/>
	<path class="st0" d="M142.2,229.2c-1-0.7-1.9-1.5-2.8-2.3C140.3,227.8,141.3,228.5,142.2,229.2c6.7,5.1,14.3,8.8,22.1,11.2
		c2.1,0.6,4.3,1.2,6.4,1.6c-2.1-0.5-4.3-1-6.4-1.6C156.6,238.1,149,234.3,142.2,229.2z"/>
	<path class="st0" d="M120.8,203.8c0.2,0.5,0.5,1,0.7,1.4c0.2,0.3,0.3,0.7,0.5,1c-0.2-0.3-0.3-0.6-0.5-1
		C121.2,204.8,121,204.3,120.8,203.8z"/>
	<path class="st0" d="M118.4,198l0.5,1.3c0.6,1.5,1.2,3,1.8,4.4c-0.7-1.5-1.3-2.9-1.8-4.4L118.4,198z"/>
	<path class="st0" d="M126.3,139.8C126.3,139.8,126.3,139.8,126.3,139.8c-0.1-0.1-0.2-0.1-0.4-0.1
		C126.1,139.7,126.2,139.7,126.3,139.8C126.3,139.8,126.3,139.8,126.3,139.8z"/>
	<path class="st0" d="M115.4,171c0.1-1.2,0.2-2.4,0.4-3.6C115.6,168.6,115.5,169.8,115.4,171z"/>
	<path class="st0" d="M117.3,194.3c0.2,0.7,0.4,1.4,0.6,2.1c0.1,0.3,0.2,0.7,0.3,1c-0.1-0.3-0.2-0.7-0.3-1
		C117.7,195.6,117.5,195,117.3,194.3z"/>
	<path class="st0" d="M115.3,171.7c-0.4,5.1-0.2,10.2,0.5,15.3c0.1,0.4,0.1,0.8,0.2,1.2c-0.1-0.4-0.1-0.8-0.2-1.2
		C115.1,181.9,114.9,176.8,115.3,171.7z"/>
</g>
</svg>
