<?xml version="1.0" encoding="utf-8"?>
<!-- Generator: Adobe Illustrator 22.0.0, SVG Export Plug-In . SVG Version: 6.00 Build 0)  -->
<svg version="1.1" id="Layer_1" xmlns="http://www.w3.org/2000/svg" xmlns:xlink="http://www.w3.org/1999/xlink" x="0px" y="0px"
	 viewBox="0 0 1080 1080" style="enable-background:new 0 0 1080 1080;" xml:space="preserve">
<style type="text/css">
	.st0{fill:#212931;}
	.st1{fill:#435969;}
	.st2{fill:#E7F0ED;}
	.st3{fill:#FECA01;}
</style>
<g>
	<path class="st0" d="M1018.4,468.9c0.7-16.4-1.5-32.1-6.8-47.1c-4.7-17.1-27.1-69.7-36-85c-9.8-16.8-42.1-58.2-55.5-72.4
		c-1.5-2.1-3.3-3.9-5.3-5.4c-22.7-17.6-45.5-35.1-68.2-52.7c-2.9-1.8-5.7-3.4-8.8-5.1c-26.8-11.3-53.7-22.7-80.5-34
		c-1.8-0.6-3.6-1.2-5.4-1.7l-5.6-1.1c-29.9-4-59.8-8-89.6-12c-3.6-0.3-7-0.4-10.5-0.4c-41.5-4.3-83-0.9-124.5,10.2
		c-59.1,21.8-112.9,43.8-157.1,91.6c-11.9,12.9-46.2,56.1-55.2,71.2c-8.3,13.9-14.7,33.5-19.8,45.5c-12.5,29.6-14.6,29.2-18.7,48.3
		c-5,23.4-12.3,70.1-12,93.8c4,29.9,8,59.8,12,89.6c0.2,1.4,0.4,2.7,0.6,4.1c0.4,1.3,0.9,2.6,1.3,3.9c5.6,13.2,11.1,26.3,16.7,39.5
		c-2.6,0.3-5.2,0.9-7.8,1.9c-20.6,8-39.6,18.5-57.5,31.5c-8,5.9-15.8,12.1-23.6,18.3c-5.4,4.3-10.7,8.7-16.1,13
		c-0.1,0.1-0.2,0.1-0.3,0.2c-2.3,1.9-4.7,3.7-7,5.6c-32.1,25.1-71.8,43.7-96.8,76.8c-15,19.8-26.4,43-24.2,68.5
		c2.7,31.2,25.4,52.8,55,60.1c46.2,11.4,92.2-8.9,130.2-33.7c45.1-29.5,87.9-63,129.3-97.4c4.1-3.4,6.9-8.3,8.5-13.6
		c18.3,15.7,48,38.2,63.3,47.7c2.9,1.8,5.9,3.5,8.9,5.1c93.2,48.9,189.9,65,294.3,40.9c17.8-4.1,25-9.2,47.9-18.9
		c15.8-6.7,31.7-12.2,46.7-20.3c16.8-9.1,57.8-42.9,72.2-55.5c3.2-2.8,5.9-5.7,8.7-8.8c17.6-22.7,35.1-45.5,52.7-68.2
		c0.9-1.5,1.8-3,2.7-4.5c11.3-26.8,22.7-53.7,34-80.5c0.6-1.6,1.2-3.3,1.8-4.9c4-29.9,8-59.8,12-89.6l0.5-4.9
		C1023,501.9,1020.8,485.4,1018.4,468.9z"/>
	<path class="st1" d="M961.2,476.3c0.6-13.9-1.3-27.2-5.8-40c-4-14.5-23-59.1-30.5-72.1c-8.3-14.3-35.7-49.3-47.1-61.4
		c-1.3-1.8-2.8-3.3-4.5-4.6c-19.3-14.9-38.6-29.8-57.9-44.7c-2.5-1.5-4.9-2.9-7.4-4.3c-22.8-9.6-45.5-19.2-68.3-28.8
		c-1.5-0.5-3.1-1-4.6-1.5l-4.7-0.9c-25.3-3.4-50.7-6.8-76-10.2c-3-0.2-6-0.3-8.9-0.3c-35.2-3.7-70.4-0.8-105.6,8.7
		c-50.1,18.5-95.7,37.1-133.3,77.7c-10.1,10.9-39.2,47.6-46.8,60.4c-7,11.7-12.5,28.4-16.8,38.6c-10.6,25.1-12.4,24.7-15.9,41
		c-4.2,19.8-10.4,59.4-10.2,79.5c3.4,25.3,6.8,50.7,10.2,76c0.2,1.1,0.4,2.3,0.5,3.4c0.4,1.1,0.7,2.2,1.1,3.3
		c9.6,22.8,19.2,45.5,28.8,68.3c7.9,13.2,16.3,22.6,26.8,36.2c11,14.3,16.1,23.2,26.9,33.4c13.2,12.4,46,37.7,61.3,47.3
		c2.5,1.6,5,3,7.6,4.3c79,41.5,161,55.2,249.6,34.7c15.1-3.5,21.2-7.8,40.6-16c13.4-5.7,26.9-10.3,39.6-17.2
		c14.2-7.7,49.1-36.4,61.2-47c2.7-2.4,5-4.8,7.4-7.5c14.9-19.3,29.8-38.6,44.7-57.9c0.8-1.3,1.5-2.5,2.3-3.8
		c9.6-22.8,19.2-45.5,28.8-68.3c0.5-1.4,1-2.8,1.5-4.1c3.4-25.3,6.8-50.7,10.2-76l0.5-4.1C965.1,504.3,963.3,490.3,961.2,476.3z"/>
	<g>
		<g>
			<path class="st2" d="M515.6,309.9l1.5,19.4c0.7,7.7,1.3,15.5,1.9,23.2c1.5,19.4,2.8,38.6,4,57.9c1.8,27,2.7,54.2,3,81.3
				c0,4.8-1.6,8.6-4.6,11.5c-3,2.9-6.6,4.5-10.7,4.8c-4,0.3-7.2-0.5-9.8-2.5c-2.6-2-4.7-4.3-6.4-7c-1.7-2.7-3.2-5.4-4.5-8.2
				l-0.7-1.3c-13-26.6-23.3-49.8-30.9-69.6c1.4,18.2,4.5,43.4,9.4,75.5l0.1,1.5c0.3,3.8-0.7,7.3-3,10.5c-2.5,3.4-6.1,5.5-10.8,6.5
				l-1.2,0.1c-4.4,0.3-8.2-0.7-11.4-3c-3.4-2.4-5.6-5.8-6.5-10.2c-5-31.9-8.7-63.9-11.1-96c-2.2-28.8-3.4-57.7-3.6-86.6
				c0.1-6,2.4-10.5,6.9-13.4c2.5-1.7,5.4-2.7,8.5-3c1.9-0.1,3.6,0,5.4,0.3c5.4,1.1,9.2,4.4,11.5,10c3.7,9.7,7.6,19.8,11.6,30.4
				c10.2,27.1,18.7,49,25.5,65.5c-0.8-11.9-2.1-29.9-3.9-54l-1.6-20.6c-0.5-6.8-1.1-13.6-1.7-20.4c-0.3-4.3,1-8.1,3.9-11.6
				c2.9-3.4,6.8-5.3,11.6-5.7c4.7-0.4,8.7,0.9,12.2,3.9C513.4,302,515.3,305.6,515.6,309.9z"/>
			<path class="st2" d="M570.1,488.3c-9.9-7.8-16.7-19.2-20.5-34.1c-3.3-12.8-5-26.7-5-41.7c0-2.3,0-4.6,0.1-6.9
				c0.6-17.6,2.8-34.7,6.4-51.6c3.6-16.8,8.2-31.4,13.6-43.6c5.4-12.3,11.2-20.3,17.5-24.1c4.9-2.6,9.6-3.9,14-3.9
				c4.8,0,9.1,1.4,12.9,4.2c7.1,5.3,12.9,13,17.4,23c4.4,10,7.9,19.9,10.3,29.7s4,17.3,4.7,22.5c1.5,8.6,2.6,18.5,3.5,29.9
				c0.4,5.6,0.6,11.3,0.6,17.1s-0.2,11.7-0.6,17.6c-0.9,11.9-3.1,23.1-6.7,33.5c-3.6,10.4-9.3,19.1-17,25.8
				c-7.9,6.6-16.3,10.2-25.1,10.9c-0.9,0.1-1.8,0.1-2.7,0.1C585.4,496.8,577.6,494,570.1,488.3z"/>
			<path class="st2" d="M683.7,459.7c-8.8-9-14.2-21.1-16.2-36.4c-1.7-13.1-1.7-27.1,0.2-42c0.3-2.2,0.6-4.5,1-6.8
				c2.8-17.3,7-34.1,12.7-50.4c5.7-16.3,11.9-30.1,18.8-41.6c6.9-11.5,13.6-18.8,20.3-21.8c5.2-2,10-2.7,14.3-2.1
				c4.7,0.6,8.8,2.5,12.2,5.8c6.4,6.2,11.2,14.5,14.4,24.9c3.2,10.5,5.4,20.7,6.6,30.8c1.2,10.1,1.9,17.7,1.9,22.9
				c0.4,8.7,0.3,18.7-0.2,30.1c-0.3,5.6-0.8,11.3-1.5,17.1s-1.6,11.6-2.8,17.4c-2.3,11.7-5.9,22.5-10.8,32.4
				c-4.9,9.9-11.5,17.8-20.1,23.6c-8.7,5.5-17.4,8.1-26.3,7.8c-0.9,0-1.8-0.1-2.7-0.2C697.9,470,690.5,466.2,683.7,459.7z"/>
			<path class="st2" d="M777.1,474.2c2.9-30.4,6.5-60.7,10.7-91c1.7-12.2,3.7-24.3,5.9-36.3c3.3-18.1,7.1-36,11.4-53.9
				c1.3-4.2,3.6-7.5,6.9-9.8c3.3-2.3,7.3-3.1,12-2.5c6.6,1.2,12.6,4.8,18,10.7c5.4,5.9,9.9,12.1,13.5,18.5
				c8.9,14.9,15.2,30.4,19.1,46.5c3,13.2,3.5,25.7,1.3,37.6c-0.5,2.6-1.1,5.2-1.7,7.6c-4,14.3-12.3,25.4-24.8,33.4
				c3.2,3.1,6,7.4,8.4,13c2.3,5.6,2.9,12,1.7,19.1c-2.5,11.2-7.6,19.1-15.4,23.5s-16.7,6.4-26.7,6c-5.2-0.2-10.3-0.8-15.4-1.7
				c-4.1-0.8-8.2-1.7-12-2.9c-4.2-1.1-7.5-3.3-9.8-6.6C777.8,482,776.8,478.3,777.1,474.2z M817.3,414.3c9.4-2.8,16.1-7.1,20.2-13
				c3-4.3,5-9.1,5.9-14.3c0.5-2.8,0.7-5.7,0.7-8.7c-0.3-9.1-2.2-18.3-5.6-27.7c-3.4-9.3-6.1-15.6-8-18.7c-0.9,4.3-2.1,11-3.8,20.2
				C822.8,373.4,819.7,394.2,817.3,414.3z M813.4,447.8c-0.7,5.4-1.2,10.9-1.8,16.6c5.6,1,9.9,0.8,12.8-0.8c1.2-0.5,1.9-1.2,2.1-2.1
				c0.2-1-0.1-2-0.8-3.2C824.1,455.2,820,451.7,813.4,447.8z"/>
			<path class="st2" d="M526,697.2c-3.2,14.2-9.3,25-18.5,32.3c-5.3,4.2-11.1,6.9-17.4,8c-4.4,0.8-8.9,0.8-13.4,0
				c-11.4-2-21.7-9.6-30.9-22.8c-8.5-12.1-14.7-29.6-18.8-52.8l-0.9-5.1c-0.6-4.6-1.5-12.1-2.6-22.6s-1.8-22.2-2.1-35.2
				c-0.3-12.9,0.6-25.3,2.5-37c1.9-11.7,5.7-20.9,11.2-27.7c3.5-4.1,7.8-6.7,13.1-7.6c4.1-0.7,8.6-0.5,13.3,0.7
				c7.3,2.3,13.8,7.3,19.3,15c5.6,7.7,10.4,16.5,14.6,26.3c4.1,9.9,7.6,19.5,10.3,28.9s4.9,17,6.4,22.8l0.3,1.4
				c0.7,4.2-0.2,8.2-2.7,11.9c-2.6,3.7-6.2,6-10.9,6.8c-4.6,0.8-8.8-0.1-12.5-2.7c-3.7-2.6-5.9-6-6.6-10.1l-5.4-20.4
				c-2.6-8.2-5.6-16.6-9.2-25.2c-3.5-8.6-6.7-14-9.5-16c-1.9,5.2-2.4,17.1-1.5,35.7c0.8,16.5,2.6,32.8,5.4,49.1l1.2,6.6
				c3.6,18.3,7.9,31.6,12.7,39.9c4.1,5.9,7.6,8.6,10.7,8.1c4.1-0.8,7.1-4.9,8.9-12.2c0.6-4.3,2.7-7.8,6.1-10.6
				c2.2-1.7,4.7-2.8,7.4-3.3c1.7-0.3,3.4-0.4,5.3-0.2c4.6,0.7,8.3,2.8,10.9,6.1c1.6,2.2,2.6,4.5,3.1,7
				C526,694,526.1,695.6,526,697.2z"/>
			<path class="st2" d="M555.2,713.1c-9.1-7.2-15.4-17.7-18.9-31.3c-3-11.7-4.6-24.5-4.6-38.4c0-2.1,0-4.2,0.1-6.4
				c0.6-16.1,2.6-31.9,5.9-47.4c3.3-15.5,7.5-28.8,12.5-40.1c5-11.3,10.3-18.6,16.1-22.1c4.5-2.4,8.8-3.6,12.8-3.6
				c4.4,0,8.3,1.3,11.8,3.9c6.5,4.9,11.9,12,16,21.1c4.1,9.2,7.3,18.3,9.5,27.3c2.2,9,3.7,15.9,4.4,20.7c1.3,7.9,2.4,17,3.2,27.4
				c0.4,5.1,0.6,10.4,0.6,15.7c0,5.4-0.2,10.7-0.6,16.2c-0.8,10.9-2.9,21.2-6.2,30.8c-3.3,9.6-8.5,17.5-15.7,23.8
				c-7.3,6-15,9.4-23.1,10c-0.8,0.1-1.6,0.1-2.5,0.1C569.3,720.9,562.2,718.3,555.2,713.1z"/>
			<path class="st2" d="M692,697.4c-11.4-5.4-20.7-14.9-27.8-28.5c-6.2-11.7-11-24.8-14.4-39.5c-0.5-2.2-1-4.5-1.5-6.8
				c-3.4-17.2-5.3-34.5-5.6-51.7c-0.3-17.2,0.7-32.4,3.2-45.6c2.5-13.2,6.3-22.3,11.5-27.5c4.2-3.7,8.4-6,12.7-7
				c4.6-1.1,9.1-0.7,13.5,1.2c8.2,3.6,15.5,9.7,22.2,18.4c6.6,8.7,12.3,17.6,16.9,26.6c4.6,9,7.9,15.9,9.8,20.8
				c3.4,8,6.8,17.4,10.3,28.2c1.7,5.3,3.2,10.8,4.5,16.5s2.5,11.4,3.5,17.3c1.9,11.8,2.3,23.2,1.1,34.1c-1.1,11-4.7,20.7-10.6,29.1
				c-6.2,8.2-13.5,13.7-21.9,16.4c-0.8,0.3-1.7,0.5-2.6,0.7C708.8,702.1,700.6,701.1,692,697.4z"/>
			<path class="st2" d="M774,706.7c-2.8-30.8-5-61.4-6.4-91.9c-0.6-14.2-1-28.3-1-42.5c0-16.6,0.4-33.2,1.3-50
				c0.5-4.4,2.4-8,5.7-10.8c3.1-2.5,6.8-3.8,11-3.8h1.3c4.8,0.5,8.6,2.5,11.5,5.9c2.3,2.9,3.5,6.3,3.5,10.1v1.2
				c-0.9,16.1-1.3,32.2-1.3,48.2c0,17.5,0.2,29,0.6,34.6l25.6-88.3c1.3-4.3,3.9-7.5,7.8-9.7c2.5-1.3,5.2-1.9,8-1.9
				c1.6,0,3.3,0.2,5,0.6c4.4,1.4,7.8,4,10,7.8c1.2,2.3,1.8,4.8,1.8,7.4c0,1.5-0.2,3-0.6,4.5l-33.5,115.8l37.5,52.7
				c1.9,2.8,2.9,5.8,2.9,8.9c0,0.9-0.1,1.8-0.2,2.8c-0.6,4.2-2.8,7.6-6.6,10.3c-3.1,2.1-6.3,3.2-9.7,3.2c-1.1,0-2.1-0.1-3-0.2
				c-4.4-0.7-8.1-3-10.8-6.7l-30-42.1c0.6,7,1.5,17.4,2.7,31.4v1.2c0,3.9-1.2,7.3-3.5,10.2c-2.9,3.3-6.8,5.3-11.5,5.9h-1.2
				c-4.4,0-8.1-1.3-11.2-3.9C776.3,714.8,774.4,711.2,774,706.7z"/>
		</g>
		<circle class="st3" cx="597.9" cy="433.4" r="28.4"/>
		<circle class="st3" cx="576.6" cy="660.6" r="28.4"/>
		<circle class="st3" cx="707.9" cy="642.8" r="28.4"/>
		<circle class="st3" cx="715" cy="394.3" r="28.4"/>
	</g>
</g>
</svg>
