<?xml version="1.0" encoding="utf-8"?>
<!-- Generator: Adobe Illustrator 22.0.0, SVG Export Plug-In . SVG Version: 6.00 Build 0)  -->
<svg version="1.1" id="Layer_1" xmlns="http://www.w3.org/2000/svg" xmlns:xlink="http://www.w3.org/1999/xlink" x="0px" y="0px"
	 viewBox="0 0 1080 1080" style="enable-background:new 0 0 1080 1080;" xml:space="preserve">
<style type="text/css">
	.st0{fill:#212931;}
	.st1{fill:#435969;}
	.st2{fill:#E7F0ED;}
	.st3{fill:#FECA01;}
	.st4{fill:#FFFFFF;}
</style>
<g>
	<path class="st4" d="M1018.4,468.9c0.7-16.4-1.5-32.1-6.8-47.1c-4.7-17.1-27.1-69.7-36-85c-9.8-16.8-42.1-58.2-55.5-72.4
		c-1.5-2.1-3.3-3.9-5.3-5.4c-22.7-17.6-45.5-35.1-68.2-52.7c-2.9-1.8-5.7-3.4-8.8-5.1c-26.8-11.3-53.7-22.7-80.5-34
		c-1.8-0.6-3.6-1.2-5.4-1.7l-5.6-1.1c-29.9-4-59.8-8-89.6-12c-3.6-0.3-7-0.4-10.5-0.4c-41.5-4.3-83-0.9-124.5,10.2
		c-59.1,21.8-112.9,43.8-157.1,91.6c-11.9,12.9-46.2,56.1-55.2,71.2c-8.3,13.9-14.7,33.5-19.8,45.5c-12.5,29.6-14.6,29.2-18.7,48.3
		c-5,23.4-12.3,70.1-12,93.8c4,29.9,8,59.8,12,89.6c0.2,1.4,0.4,2.7,0.6,4.1c0.4,1.3,0.9,2.6,1.3,3.9c5.6,13.2,11.1,26.3,16.7,39.5
		c-2.6,0.3-5.2,0.9-7.8,1.9c-20.6,8-39.6,18.5-57.5,31.5c-8,5.9-15.8,12.1-23.6,18.3c-5.4,4.3-10.7,8.7-16.1,13
		c-0.1,0.1-0.2,0.1-0.3,0.2c-2.3,1.9-4.7,3.7-7,5.6c-32.1,25.1-71.8,43.7-96.8,76.8c-15,19.8-26.4,43-24.2,68.5
		c2.7,31.2,25.4,52.8,55,60.1c46.2,11.4,92.2-8.9,130.2-33.7c45.1-29.5,87.9-63,129.3-97.4c4.1-3.4,6.9-8.3,8.5-13.6
		c18.3,15.7,48,38.2,63.3,47.7c2.9,1.8,5.9,3.5,8.9,5.1c93.2,48.9,189.9,65,294.3,40.9c17.8-4.1,25-9.2,47.9-18.9
		c15.8-6.7,31.7-12.2,46.7-20.3c16.8-9.1,57.8-42.9,72.2-55.5c3.2-2.8,5.9-5.7,8.7-8.8c17.6-22.7,35.1-45.5,52.7-68.2
		c0.9-1.5,1.8-3,2.7-4.5c11.3-26.8,22.7-53.7,34-80.5c0.6-1.6,1.2-3.3,1.8-4.9c4-29.9,8-59.8,12-89.6l0.5-4.9
		C1023,501.9,1020.8,485.4,1018.4,468.9z M966.3,522.5c-3.4,25.3-6.8,50.7-10.2,76c-0.5,1.4-1,2.8-1.5,4.1
		c-9.6,22.8-19.2,45.5-28.8,68.3c-0.8,1.3-1.5,2.5-2.3,3.8c-14.9,19.3-29.8,38.6-44.7,57.9c-2.4,2.6-4.7,5.1-7.4,7.5
		c-12.2,10.6-47,39.4-61.2,47c-12.7,6.8-26.2,11.5-39.6,17.2c-19.5,8.2-25.5,12.5-40.6,16c-88.6,20.4-170.6,6.7-249.6-34.7
		c-2.6-1.4-5.1-2.8-7.6-4.3c-15.3-9.6-48.1-34.9-61.3-47.3c-10.8-10.2-15.9-19.1-26.9-33.4c-10.5-13.6-19-22.9-26.8-36.2
		c-9.6-22.8-19.2-45.5-28.8-68.3c-0.4-1.1-0.7-2.2-1.1-3.3c-0.2-1.1-0.4-2.3-0.5-3.4c-3.4-25.3-6.8-50.7-10.2-76
		c-0.2-20.1,5.9-59.7,10.2-79.5c3.5-16.2,5.3-15.8,15.9-41c4.3-10.2,9.8-26.9,16.8-38.6c7.7-12.8,36.7-49.5,46.8-60.4
		c37.5-40.5,83.2-59.2,133.3-77.7c35.2-9.5,70.4-12.3,105.6-8.7c2.9,0,5.9,0.1,8.9,0.3c25.3,3.4,50.7,6.8,76,10.2l4.7,0.9
		c1.5,0.5,3.1,1,4.6,1.5c22.8,9.6,45.5,19.2,68.3,28.8c2.6,1.4,5,2.8,7.4,4.3c19.3,14.9,38.6,29.8,57.9,44.7
		c1.7,1.3,3.3,2.9,4.5,4.6c11.4,12,38.7,47.1,47.1,61.4c7.6,13,26.5,57.6,30.5,72.1c4.5,12.7,6.4,26,5.8,40c2.1,14,3.9,28,5.6,42.1
		L966.3,522.5z"/>
	<path class="st4" d="M435,500.3c0.9,4.4,3.1,7.8,6.5,10.2c3.3,2.3,7.1,3.4,11.4,3l1.2-0.1c4.7-1,8.3-3.2,10.8-6.5
		c2.3-3.2,3.3-6.7,3-10.5l-0.1-1.5c-4.9-32.1-8-57.2-9.4-75.5c7.6,19.8,17.9,43,30.9,69.6l0.7,1.3c1.3,2.7,2.8,5.5,4.5,8.2
		c1.7,2.7,3.9,5,6.4,7c2.6,2,5.9,2.8,9.8,2.5c4.1-0.3,7.7-1.9,10.7-4.8c3-2.9,4.6-6.8,4.6-11.5c-0.2-27.2-1.2-54.3-3-81.3
		c-1.2-19.2-2.5-38.5-4-57.9c-0.6-7.7-1.2-15.5-1.9-23.2l-1.5-19.4c-0.3-4.3-2.2-7.9-5.6-10.8c-3.4-2.9-7.5-4.2-12.2-3.9
		c-4.8,0.4-8.6,2.3-11.6,5.7c-2.9,3.4-4.2,7.3-3.9,11.6c0.6,6.9,1.2,13.7,1.7,20.4l1.6,20.6c1.8,24,3.1,42,3.9,54
		c-6.8-16.5-15.3-38.3-25.5-65.5c-4-10.6-7.8-20.7-11.6-30.4c-2.3-5.5-6.1-8.8-11.5-10c-1.7-0.4-3.5-0.5-5.4-0.3
		c-3.1,0.2-6,1.2-8.5,3c-4.5,2.9-6.8,7.4-6.9,13.4c0.2,29,1.4,57.8,3.6,86.6C426.3,436.4,430,468.4,435,500.3z"/>
	<path class="st4" d="M645.6,408.9c0-5.8-0.2-11.5-0.6-17.1c-0.9-11.3-2.1-21.3-3.5-29.9c-0.7-5.2-2.3-12.7-4.7-22.5
		c-2.4-9.8-5.9-19.7-10.3-29.7c-4.4-10-10.2-17.7-17.4-23c-3.8-2.8-8.1-4.2-12.9-4.2c-4.4,0-9,1.3-14,3.9
		c-6.2,3.8-12.1,11.8-17.5,24.1c-5.4,12.3-10,26.8-13.6,43.6c-3.6,16.8-5.8,34-6.4,51.6c-0.1,2.3-0.1,4.7-0.1,6.9
		c0,15,1.7,29,5,41.7c3.8,14.9,10.6,26.3,20.5,34.1c7.5,5.7,15.3,8.5,23.3,8.5c0.9,0,1.8,0,2.7-0.1c8.8-0.7,17.2-4.4,25.1-10.9
		c7.8-6.8,13.4-15.4,17-25.8c3.6-10.4,5.8-21.6,6.7-33.5C645.4,420.5,645.6,414.7,645.6,408.9z M597.9,461.8
		c-15.7,0-28.4-12.7-28.4-28.4s12.7-28.4,28.4-28.4c15.7,0,28.4,12.7,28.4,28.4S613.6,461.8,597.9,461.8z"/>
	<path class="st4" d="M769.8,373c0.5-11.3,0.6-21.4,0.2-30.1c-0.1-5.2-0.7-12.9-1.9-22.9c-1.2-10.1-3.4-20.3-6.6-30.8
		c-3.2-10.5-8-18.8-14.4-24.9c-3.4-3.3-7.5-5.2-12.2-5.8c-4.3-0.5-9.1,0.2-14.3,2.1c-6.6,3-13.4,10.3-20.3,21.8
		c-6.9,11.5-13.2,25.4-18.8,41.6c-5.7,16.3-9.9,33.1-12.7,50.4c-0.4,2.3-0.7,4.6-1,6.8c-1.8,14.9-1.9,28.9-0.2,42
		c2,15.2,7.3,27.4,16.2,36.4c6.8,6.5,14.1,10.3,22.1,11.3c0.9,0.1,1.8,0.2,2.7,0.2c8.8,0.4,17.6-2.2,26.3-7.8
		c8.5-5.8,15.2-13.6,20.1-23.6c4.8-9.9,8.4-20.7,10.8-32.4c1.1-5.8,2-11.6,2.8-17.4C769.1,384.3,769.6,378.6,769.8,373z M715,422.7
		c-15.7,0-28.4-12.7-28.4-28.4c0-15.7,12.7-28.4,28.4-28.4s28.4,12.7,28.4,28.4C743.4,410,730.7,422.7,715,422.7z"/>
	<path class="st4" d="M855.5,309.9c-3.6-6.4-8.1-12.6-13.5-18.5c-5.4-5.9-11.4-9.5-18-10.7c-4.6-0.7-8.6,0.1-12,2.5
		c-3.3,2.3-5.6,5.6-6.9,9.8c-4.3,17.9-8.1,35.9-11.4,53.9c-2.2,12-4.1,24.1-5.9,36.3c-4.3,30.3-7.8,60.7-10.7,91
		c-0.3,4.1,0.6,7.7,2.9,11.1c2.3,3.3,5.5,5.5,9.8,6.6c3.9,1.2,7.9,2.2,12,2.9c5,0.9,10.1,1.5,15.4,1.7c10,0.4,18.9-1.6,26.7-6
		c7.8-4.4,13-12.2,15.4-23.5c1.2-7.1,0.6-13.5-1.7-19.1c-2.3-5.6-5.1-10-8.4-13c12.5-7.9,20.8-19,24.8-33.4c0.7-2.4,1.3-4.9,1.7-7.6
		c2.2-11.9,1.7-24.4-1.3-37.6C870.7,340.3,864.3,324.8,855.5,309.9z M826.6,461.5c-0.2,0.9-0.9,1.6-2.1,2.1c-3,1.5-7.3,1.8-12.8,0.8
		c0.5-5.7,1.1-11.2,1.8-16.6c6.6,3.9,10.7,7.4,12.4,10.5C826.5,459.5,826.7,460.5,826.6,461.5z M843.4,387c-1,5.3-2.9,10-5.9,14.3
		c-4.1,5.8-10.8,10.2-20.2,13c2.4-20.1,5.6-40.9,9.5-62.3c1.7-9.2,2.9-15.9,3.8-20.2c1.9,3.1,4.6,9.4,8,18.7
		c3.4,9.3,5.3,18.6,5.6,27.7C844.2,381.3,843.9,384.2,843.4,387z"/>
	<path class="st4" d="M522.7,685.6c-2.6-3.3-6.3-5.3-10.9-6.1c-1.8-0.2-3.6-0.1-5.3,0.2c-2.7,0.5-5.2,1.6-7.4,3.3
		c-3.5,2.7-5.5,6.3-6.1,10.6c-1.8,7.3-4.8,11.4-8.9,12.2c-3,0.5-6.6-2.2-10.7-8.1c-4.8-8.3-9.1-21.6-12.7-39.9l-1.2-6.6
		c-2.9-16.3-4.7-32.6-5.4-49.1c-0.9-18.7-0.4-30.6,1.5-35.7c2.8,2,6,7.4,9.5,16c3.5,8.6,6.6,17,9.2,25.2l5.4,20.4
		c0.7,4.1,2.9,7.5,6.6,10.1c3.7,2.6,7.9,3.5,12.5,2.7c4.7-0.8,8.3-3.1,10.9-6.8c2.6-3.7,3.5-7.7,2.7-11.9l-0.3-1.4
		c-1.5-5.8-3.7-13.4-6.4-22.8c-2.8-9.4-6.2-19-10.3-28.9c-4.1-9.9-9-18.6-14.6-26.3c-5.6-7.7-12-12.7-19.3-15
		c-4.7-1.2-9.2-1.5-13.3-0.7c-5.3,0.9-9.6,3.5-13.1,7.6c-5.6,6.7-9.3,15.9-11.2,27.7c-1.9,11.7-2.7,24-2.5,37
		c0.3,12.9,1,24.7,2.1,35.2s2,18.1,2.6,22.6l0.9,5.1c4.1,23.1,10.3,40.7,18.8,52.8c9.2,13.2,19.5,20.8,30.9,22.8
		c4.6,0.8,9,0.7,13.4,0c6.3-1.1,12.1-3.8,17.4-8c9.1-7.4,15.3-18.1,18.5-32.3c0.1-1.7,0.1-3.2-0.2-4.6
		C525.4,690.1,524.3,687.8,522.7,685.6z"/>
	<path class="st4" d="M620.8,596.9c-0.7-4.8-2.1-11.7-4.4-20.7s-5.4-18.1-9.5-27.3c-4.1-9.2-9.4-16.2-16-21.1
		c-3.5-2.6-7.4-3.9-11.8-3.9c-4,0-8.3,1.2-12.8,3.6c-5.7,3.5-11.1,10.9-16.1,22.1c-5,11.3-9.1,24.6-12.5,40.1
		c-3.3,15.5-5.3,31.3-5.9,47.4c-0.1,2.2-0.1,4.3-0.1,6.4c0,13.8,1.5,26.6,4.6,38.4c3.5,13.7,9.8,24.1,18.9,31.3
		c6.9,5.2,14.1,7.8,21.4,7.8c0.8,0,1.6,0,2.5-0.1c8.1-0.7,15.8-4,23.1-10c7.1-6.2,12.4-14.2,15.7-23.8c3.3-9.6,5.4-19.9,6.2-30.8
		c0.4-5.4,0.6-10.8,0.6-16.2c0-5.4-0.2-10.6-0.6-15.7C623.2,613.9,622.2,604.8,620.8,596.9z M576.6,689c-15.7,0-28.4-12.7-28.4-28.4
		c0-15.7,12.7-28.4,28.4-28.4s28.4,12.7,28.4,28.4C605,676.3,592.3,689,576.6,689z"/>
	<path class="st4" d="M747.2,602.6c-1.3-5.7-2.8-11.2-4.5-16.5c-3.5-10.8-6.9-20.2-10.3-28.2c-1.9-4.9-5.2-11.8-9.8-20.8
		c-4.6-9-10.2-17.9-16.9-26.6c-6.6-8.7-14-14.8-22.2-18.4c-4.4-1.9-8.9-2.3-13.5-1.2c-4.3,1-8.5,3.3-12.7,7
		c-5.2,5.1-9,14.3-11.5,27.5c-2.5,13.2-3.5,28.4-3.2,45.6c0.3,17.2,2.2,34.4,5.6,51.7c0.5,2.3,1,4.6,1.5,6.8
		c3.5,14.6,8.3,27.8,14.4,39.5c7.1,13.6,16.4,23.1,27.8,28.5c8.6,3.8,16.8,4.7,24.6,2.9c0.9-0.2,1.7-0.4,2.6-0.7
		c8.4-2.7,15.7-8.2,21.9-16.4c6-8.4,9.5-18.1,10.6-29.1c1.1-11,0.7-22.4-1.1-34.1C749.7,614.1,748.5,608.3,747.2,602.6z
		 M707.9,671.2c-15.7,0-28.4-12.7-28.4-28.4c0-15.7,12.7-28.4,28.4-28.4c15.7,0,28.4,12.7,28.4,28.4
		C736.3,658.5,723.6,671.2,707.9,671.2z"/>
	<path class="st4" d="M824.3,643.8L857.8,528c0.4-1.5,0.6-3,0.6-4.5c0-2.6-0.6-5.1-1.8-7.4c-2.2-3.8-5.5-6.4-10-7.8
		c-1.7-0.4-3.4-0.6-5-0.6c-2.8,0-5.5,0.6-8,1.9c-3.9,2.2-6.5,5.4-7.8,9.7l-25.6,88.3c-0.4-5.6-0.6-17.1-0.6-34.6
		c0-16,0.4-32.1,1.3-48.2v-1.2c0-3.8-1.2-7.2-3.5-10.1c-2.9-3.5-6.8-5.5-11.5-5.9h-1.3c-4.3,0-8,1.3-11,3.8
		c-3.3,2.8-5.2,6.4-5.7,10.8c-0.9,16.7-1.3,33.4-1.3,50c0,14.2,0.3,28.3,1,42.5c1.5,30.4,3.6,61,6.4,91.9c0.5,4.5,2.4,8.1,5.7,10.8
		c3.1,2.6,6.8,3.9,11.2,3.9h1.2c4.8-0.6,8.6-2.6,11.5-5.9c2.3-2.9,3.5-6.3,3.5-10.2V704c-1.2-14-2.1-24.5-2.7-31.4l30,42.1
		c2.7,3.7,6.3,5.9,10.8,6.7c1,0.2,2,0.2,3,0.2c3.4,0,6.6-1.1,9.7-3.2c3.7-2.7,5.9-6.1,6.6-10.3c0.2-1,0.2-1.9,0.2-2.8
		c0-3.1-1-6-2.9-8.9L824.3,643.8z"/>
</g>
</svg>
