<?xml version="1.0" encoding="utf-8"?>
<!-- Generator: Adobe Illustrator 22.0.0, SVG Export Plug-In . SVG Version: 6.00 Build 0)  -->
<svg version="1.1" id="Layer_1" xmlns="http://www.w3.org/2000/svg" xmlns:xlink="http://www.w3.org/1999/xlink" x="0px" y="0px"
	 viewBox="0 0 1080 1080" style="enable-background:new 0 0 1080 1080;" xml:space="preserve">
<style type="text/css">
	.st0{fill:none;}
	.st1{fill:#D7E5E0;}
	.st2{fill:#E7F0ED;}
	.st3{fill:url(#_x36__dpi_60_x25__2);}
</style>
<pattern  width="48" height="48" patternUnits="userSpaceOnUse" id="_x36__dpi_60_x25__2" viewBox="7.2 -55.2 48 48" style="overflow:visible;">
	<g>
		<rect x="7.2" y="-55.2" class="st0" width="48" height="48"/>
		<g>
			<path class="st1" d="M31.2,0c4,0,7.2-3.2,7.2-7.2c0-4-3.2-7.2-7.2-7.2c-4,0-7.2,3.2-7.2,7.2C24-3.2,27.2,0,31.2,0z"/>
			<path class="st1" d="M55.2,0c4,0,7.2-3.2,7.2-7.2c0-4-3.2-7.2-7.2-7.2c-4,0-7.2,3.2-7.2,7.2C48-3.2,51.2,0,55.2,0z"/>
			<path class="st1" d="M31.2-24c4,0,7.2-3.2,7.2-7.2c0-4-3.2-7.2-7.2-7.2c-4,0-7.2,3.2-7.2,7.2C24-27.2,27.2-24,31.2-24z"/>
			<path class="st1" d="M55.2-24c4,0,7.2-3.2,7.2-7.2c0-4-3.2-7.2-7.2-7.2c-4,0-7.2,3.2-7.2,7.2C48-27.2,51.2-24,55.2-24z"/>
			<path class="st1" d="M43.2-12c4,0,7.2-3.2,7.2-7.2c0-4-3.2-7.2-7.2-7.2c-4,0-7.2,3.2-7.2,7.2C36-15.2,39.2-12,43.2-12z"/>
			<path class="st1" d="M19.2-12c4,0,7.2-3.2,7.2-7.2c0-4-3.2-7.2-7.2-7.2c-4,0-7.2,3.2-7.2,7.2C12-15.2,15.2-12,19.2-12z"/>
			<path class="st1" d="M43.2-36c4,0,7.2-3.2,7.2-7.2c0-4-3.2-7.2-7.2-7.2c-4,0-7.2,3.2-7.2,7.2C36-39.2,39.2-36,43.2-36z"/>
			<path class="st1" d="M19.2-36c4,0,7.2-3.2,7.2-7.2c0-4-3.2-7.2-7.2-7.2c-4,0-7.2,3.2-7.2,7.2C12-39.2,15.2-36,19.2-36z"/>
		</g>
		<g>
			<path class="st1" d="M7.2,0c4,0,7.2-3.2,7.2-7.2c0-4-3.2-7.2-7.2-7.2c-4,0-7.2,3.2-7.2,7.2C0-3.2,3.2,0,7.2,0z"/>
			<path class="st1" d="M7.2-24c4,0,7.2-3.2,7.2-7.2c0-4-3.2-7.2-7.2-7.2c-4,0-7.2,3.2-7.2,7.2C0-27.2,3.2-24,7.2-24z"/>
		</g>
		<g>
			<path class="st1" d="M31.2-48c4,0,7.2-3.2,7.2-7.2c0-4-3.2-7.2-7.2-7.2c-4,0-7.2,3.2-7.2,7.2C24-51.2,27.2-48,31.2-48z"/>
			<path class="st1" d="M55.2-48c4,0,7.2-3.2,7.2-7.2c0-4-3.2-7.2-7.2-7.2c-4,0-7.2,3.2-7.2,7.2C48-51.2,51.2-48,55.2-48z"/>
		</g>
		<g>
			<path class="st1" d="M7.2-48c4,0,7.2-3.2,7.2-7.2c0-4-3.2-7.2-7.2-7.2c-4,0-7.2,3.2-7.2,7.2C0-51.2,3.2-48,7.2-48z"/>
		</g>
	</g>
</pattern>
<path class="st2" d="M778.9,1080H1080V215.9c-1-1.1-2.1-2.1-3.2-3.1c-12.3-13.2-26.8-22.6-43.6-28c-16.2-8.5-33.6-12.4-52.2-11.7
	c-12,1.6-24,3.2-36,4.8c-23,6.4-42.9,18.1-59.8,34.9c-7.1,9.1-14.1,18.3-21.2,27.4c-12.3,21.1-18.4,43.9-18.5,68.4
	c-11.4,115.6-22.9,231.2-34.3,346.7c-11.4,115-23.7,230-34.1,345.2c-1.4,15.4-2.4,30.9-1.4,46.3C776.2,1057.9,777.4,1069,778.9,1080
	z"/>
<path class="st3" d="M880.7,1080H1080V720.3c-0.7-0.4-1.4-0.9-2.1-1.3c-8.1-5.5-17.8-9.4-28.9-11.7c-10.7-3.5-22.2-5.2-34.6-4.9
	c-8,0.7-15.9,1.3-23.9,2c-15.2,2.7-28.4,7.5-39.6,14.5c-4.7,3.8-9.4,7.6-14,11.4c-8.1,8.8-12.2,18.3-12.3,28.5
	c-7.6,48.1-15.1,96.2-22.7,144.3c-7.5,47.9-15.7,95.8-22.6,143.7c-0.9,6.4-1.6,12.8-0.9,19.3C878.9,1070.8,879.7,1075.4,880.7,1080z
	"/>
</svg>
